<svg width="180" height="52" viewBox="0 0 180 52" fill="none" xmlns="http://www.w3.org/2000/svg">
<path d="M179 46.0024C179 48.7735 176.709 51.0182 173.874 51.0182H6.13243C3.2995 51.0182 1 48.7735 1 46.0024V6.00284C1 3.23301 3.2995 0.980469 6.13243 0.980469H173.873C176.709 0.980469 178.999 3.23301 178.999 6.00284L179 46.0024Z" fill="#18181D"/>
<path d="M173.333 1.04162C176.42 1.04162 178.932 3.4905 178.932 6.5V45.5C178.932 48.5095 176.42 50.9584 173.333 50.9584H6.66667C3.58 50.9584 1.06833 48.5095 1.06833 45.5V6.5C1.06833 3.4905 3.58 1.04162 6.66667 1.04162H173.333ZM173.333 2.74817e-06H6.66667C3.00167 2.74817e-06 0 2.92663 0 6.5V45.5C0 49.0734 3.00167 52 6.66667 52H173.333C176.998 52 180 49.0734 180 45.5V6.5C180 2.92663 176.998 2.74817e-06 173.333 2.74817e-06Z" fill="#35353E"/>
<path d="M40.1705 25.7191C40.1318 21.5292 43.6891 19.4908 43.8518 19.3959C41.8371 16.532 38.7145 16.1407 37.6171 16.1095C34.9945 15.8404 32.4505 17.6396 31.1145 17.6396C29.7518 17.6396 27.6945 16.1355 25.4771 16.1797C22.6238 16.2226 19.9545 17.8333 18.4905 20.3345C15.4691 25.4344 17.7225 32.9289 20.6171 37.0512C22.0651 39.0701 23.7571 41.3243 25.9718 41.245C28.1385 41.1579 28.9478 39.8982 31.5625 39.8982C34.1531 39.8982 34.9131 41.245 37.1718 41.1943C39.4971 41.1579 40.9611 39.1663 42.3585 37.1292C44.0318 34.8152 44.7038 32.5363 44.7305 32.4193C44.6758 32.4011 40.2145 30.741 40.1705 25.7191Z" fill="white"/>
<path d="M35.9038 13.3977C37.0691 11.9768 37.8665 10.0437 37.6451 8.08203C35.9585 8.15483 33.8491 9.21953 32.6345 10.6092C31.5598 11.8338 30.5998 13.841 30.8478 15.7286C32.7425 15.8664 34.6878 14.7965 35.9038 13.3977Z" fill="white"/>
<path d="M71.5269 40.9547H68.4989L66.8402 35.873H61.0749L59.4949 40.9547H56.5469L62.2589 23.6543H65.7869L71.5269 40.9547ZM66.3402 33.741L64.8402 29.2235C64.6815 28.762 64.3842 27.6752 63.9455 25.9644H63.8922C63.7175 26.7002 63.4362 27.787 63.0495 29.2235L61.5762 33.741H66.3402Z" fill="white"/>
<path d="M86.2159 34.5628C86.2159 36.6844 85.6279 38.3614 84.4519 39.5925C83.3985 40.6884 82.0905 41.2357 80.5292 41.2357C78.8439 41.2357 77.6332 40.6455 76.8959 39.4651H76.8425V46.0366H73.9999V32.5855C73.9999 31.2517 73.9639 29.8828 73.8945 28.4788H76.3945L76.5532 30.4561H76.6065C77.5545 28.9663 78.9932 28.2227 80.9239 28.2227C82.4332 28.2227 83.6932 28.8038 84.7012 29.9673C85.7119 31.1321 86.2159 32.6635 86.2159 34.5628ZM83.3199 34.6642C83.3199 33.45 83.0399 32.449 82.4772 31.6612C81.8625 30.8396 81.0372 30.4288 80.0025 30.4288C79.3012 30.4288 78.6639 30.6576 78.0945 31.1087C77.5239 31.5637 77.1505 32.1578 76.9759 32.8936C76.8879 33.2368 76.8439 33.5176 76.8439 33.7386V35.8186C76.8439 36.726 77.1292 37.4917 77.6999 38.117C78.2705 38.7423 79.0119 39.0543 79.9239 39.0543C80.9945 39.0543 81.8279 38.6513 82.4239 37.8479C83.0212 37.0432 83.3199 35.9824 83.3199 34.6642Z" fill="white"/>
<path d="M100.932 34.5628C100.932 36.6844 100.344 38.3614 99.167 39.5925C98.115 40.6884 96.807 41.2357 95.2456 41.2357C93.5603 41.2357 92.3496 40.6455 91.6136 39.4651H91.5603V46.0366H88.7176V32.5855C88.7176 31.2517 88.6816 29.8828 88.6123 28.4788H91.1123L91.271 30.4561H91.3243C92.271 28.9663 93.7096 28.2227 95.6416 28.2227C97.1496 28.2227 98.4096 28.8038 99.4203 29.9673C100.427 31.1321 100.932 32.6635 100.932 34.5628ZM98.0363 34.6642C98.0363 33.45 97.755 32.449 97.1923 31.6612C96.5776 30.8396 95.755 30.4288 94.719 30.4288C94.0163 30.4288 93.3803 30.6576 92.8096 31.1087C92.239 31.5637 91.867 32.1578 91.6923 32.8936C91.6056 33.2368 91.5603 33.5176 91.5603 33.7386V35.8186C91.5603 36.726 91.8456 37.4917 92.4136 38.117C92.9843 38.741 93.7256 39.0543 94.6403 39.0543C95.711 39.0543 96.5443 38.6513 97.1403 37.8479C97.7376 37.0432 98.0363 35.9824 98.0363 34.6642Z" fill="white"/>
<path d="M117.386 36.1027C117.386 37.5743 116.862 38.7716 115.81 39.6959C114.654 40.706 113.045 41.2104 110.977 41.2104C109.067 41.2104 107.537 40.8516 106.378 40.1327L107.037 37.8226C108.285 38.5584 109.654 38.9276 111.146 38.9276C112.217 38.9276 113.05 38.691 113.649 38.2204C114.245 37.7498 114.542 37.118 114.542 36.3302C114.542 35.6282 114.297 35.0367 113.805 34.557C113.315 34.0773 112.498 33.6314 111.357 33.2193C108.25 32.0896 106.698 30.4347 106.698 28.2585C106.698 26.8363 107.242 25.6702 108.331 24.7628C109.417 23.8541 110.865 23.4004 112.675 23.4004C114.29 23.4004 115.631 23.6747 116.702 24.222L115.991 26.4814C114.991 25.951 113.861 25.6858 112.595 25.6858C111.595 25.6858 110.814 25.9263 110.254 26.4047C109.781 26.8324 109.543 27.3537 109.543 27.9712C109.543 28.655 109.814 29.2205 110.358 29.6651C110.831 30.0759 111.691 30.5205 112.939 31.0002C114.466 31.5995 115.587 32.3002 116.309 33.1036C117.027 33.9044 117.386 34.9067 117.386 36.1027Z" fill="white"/>
<path d="M126.784 30.5594H123.651V36.6161C123.651 38.1566 124.203 38.9262 125.31 38.9262C125.818 38.9262 126.239 38.8833 126.572 38.7975L126.651 40.9022C126.091 41.1063 125.354 41.209 124.44 41.209C123.318 41.209 122.44 40.8749 121.807 40.208C121.176 39.5398 120.859 38.4192 120.859 36.8449V30.5568H118.992V28.4768H120.859V26.1927L123.651 25.3711V28.4768H126.784V30.5594Z" fill="white"/>
<path d="M140.922 34.6141C140.922 36.5316 140.359 38.1059 139.236 39.337C138.059 40.6045 136.496 41.2363 134.548 41.2363C132.671 41.2363 131.176 40.6292 130.062 39.415C128.947 38.2008 128.39 36.6681 128.39 34.8208C128.39 32.8877 128.963 31.3043 130.114 30.0732C131.262 28.8408 132.811 28.2246 134.759 28.2246C136.636 28.2246 138.147 28.8317 139.287 30.0472C140.378 31.2263 140.922 32.7486 140.922 34.6141ZM137.972 34.7038C137.972 33.5533 137.72 32.5666 137.21 31.7437C136.614 30.7479 135.762 30.2513 134.658 30.2513C133.515 30.2513 132.647 30.7492 132.051 31.7437C131.54 32.5679 131.288 33.5702 131.288 34.7558C131.288 35.9063 131.54 36.893 132.051 37.7146C132.666 38.7104 133.524 39.207 134.632 39.207C135.718 39.207 136.57 38.7 137.184 37.6886C137.708 36.8501 137.972 35.853 137.972 34.7038Z" fill="white"/>
<path d="M150.162 30.9163C149.88 30.8656 149.58 30.8396 149.266 30.8396C148.266 30.8396 147.492 31.2075 146.948 31.9446C146.475 32.5946 146.238 33.4162 146.238 34.4081V40.9536H143.396L143.423 32.4074C143.423 30.9696 143.387 29.6605 143.316 28.4801H145.792L145.896 30.8669H145.975C146.275 30.0466 146.748 29.3862 147.396 28.8909C148.03 28.445 148.714 28.2227 149.451 28.2227C149.714 28.2227 149.951 28.2409 150.162 28.2734V30.9163Z" fill="white"/>
<path d="M162.875 34.1259C162.875 34.6225 162.841 35.0411 162.771 35.383H154.243C154.276 36.6154 154.688 37.5579 155.48 38.2079C156.199 38.789 157.128 39.0802 158.269 39.0802C159.532 39.0802 160.684 38.8839 161.72 38.49L162.165 40.414C160.955 40.9288 159.525 41.1849 157.876 41.1849C155.892 41.1849 154.335 40.6155 153.201 39.478C152.071 38.3405 151.504 36.813 151.504 34.8968C151.504 33.0157 152.031 31.4492 153.085 30.1999C154.189 28.8661 155.681 28.1992 157.559 28.1992C159.403 28.1992 160.799 28.8661 161.747 30.1999C162.497 31.2594 162.875 32.5698 162.875 34.1259ZM160.164 33.407C160.183 32.5854 159.997 31.8756 159.612 31.2763C159.12 30.5054 158.364 30.1206 157.347 30.1206C156.417 30.1206 155.661 30.4963 155.084 31.2503C154.611 31.8496 154.329 32.5685 154.243 33.4057H160.164V33.407Z" fill="white"/>
<path d="M65.3997 13.0123C65.3997 14.5424 64.9291 15.6942 63.989 16.4677C63.1184 17.1814 61.881 17.5389 60.2784 17.5389C59.4837 17.5389 58.8037 17.5051 58.2344 17.4375V9.07719C58.977 8.96019 59.777 8.90039 60.641 8.90039C62.1677 8.90039 63.3184 9.22409 64.0944 9.87149C64.9637 10.6034 65.3997 11.6499 65.3997 13.0123ZM63.9264 13.05C63.9264 12.0581 63.657 11.2976 63.1184 10.7672C62.5797 10.2381 61.793 9.97289 60.757 9.97289C60.317 9.97289 59.9424 10.0015 59.6317 10.0613V16.417C59.8037 16.443 60.1184 16.4547 60.5757 16.4547C61.645 16.4547 62.4704 16.1648 63.0517 15.585C63.6331 15.0052 63.9264 14.1602 63.9264 13.05Z" fill="white"/>
<path d="M73.2117 14.3491C73.2117 15.2916 72.9357 16.0638 72.3837 16.6696C71.805 17.2923 71.0383 17.603 70.081 17.603C69.1583 17.603 68.4237 17.3053 67.8757 16.7073C67.329 16.1106 67.0557 15.3579 67.0557 14.4505C67.0557 13.5015 67.337 12.7228 67.9023 12.1183C68.4677 11.5138 69.2277 11.2109 70.185 11.2109C71.1077 11.2109 71.849 11.5086 72.4103 12.1053C72.9437 12.6851 73.2117 13.4339 73.2117 14.3491ZM71.7623 14.3933C71.7623 13.8278 71.637 13.3429 71.3877 12.9386C71.0943 12.4498 70.677 12.2054 70.1343 12.2054C69.573 12.2054 69.1463 12.4498 68.853 12.9386C68.6023 13.3429 68.4783 13.8356 68.4783 14.418C68.4783 14.9835 68.6037 15.4684 68.853 15.8727C69.1557 16.3615 69.577 16.6059 70.121 16.6059C70.6543 16.6059 71.073 16.3576 71.3743 15.8597C71.633 15.4476 71.7623 14.9588 71.7623 14.3933Z" fill="white"/>
<path d="M83.6867 11.3359L81.7201 17.4641H80.4401L79.6254 14.803C79.4187 14.1387 79.2507 13.4783 79.1201 12.8231H79.0947C78.9734 13.4965 78.8054 14.1556 78.5894 14.803L77.7241 17.4641H76.4294L74.5801 11.3359H76.0161L76.7267 14.2492C76.8987 14.9382 77.0401 15.5947 77.1534 16.2161H77.1787C77.2827 15.7039 77.4547 15.0513 77.6974 14.2622L78.5894 11.3372H79.7281L80.5827 14.1998C80.7894 14.8979 80.9574 15.57 81.0867 16.2174H81.1254C81.2201 15.5869 81.3627 14.9148 81.5521 14.1998L82.3147 11.3372H83.6867V11.3359Z" fill="white"/>
<path d="M90.9302 17.4639H89.5329V13.9539C89.5329 12.8723 89.1116 12.3315 88.2662 12.3315C87.8516 12.3315 87.5169 12.4797 87.2569 12.7774C86.9996 13.0751 86.8689 13.4261 86.8689 13.8278V17.4626H85.4716V13.0868C85.4716 12.5486 85.4542 11.9649 85.4209 11.3331H86.6489L86.7142 12.2912H86.7529C86.9156 11.9935 87.1582 11.7478 87.4769 11.5515C87.8556 11.3227 88.2796 11.207 88.7436 11.207C89.3302 11.207 89.8182 11.3916 90.2062 11.7621C90.6889 12.2158 90.9302 12.8931 90.9302 13.7927V17.4639Z" fill="white"/>
<path d="M94.7837 17.4635H93.3877V8.52344H94.7837V17.4635Z" fill="white"/>
<path d="M103.01 14.3491C103.01 15.2916 102.734 16.0638 102.182 16.6696C101.604 17.2923 100.836 17.603 99.8798 17.603C98.9558 17.603 98.2212 17.3053 97.6745 16.7073C97.1278 16.1106 96.8545 15.3579 96.8545 14.4505C96.8545 13.5015 97.1358 12.7228 97.7012 12.1183C98.2665 11.5138 99.0265 11.2109 99.9825 11.2109C100.906 11.2109 101.646 11.5086 102.209 12.1053C102.742 12.6851 103.01 13.4339 103.01 14.3491ZM101.56 14.3933C101.56 13.8278 101.434 13.3429 101.185 12.9386C100.893 12.4498 100.474 12.2054 99.9332 12.2054C99.3705 12.2054 98.9438 12.4498 98.6518 12.9386C98.4012 13.3429 98.2772 13.8356 98.2772 14.418C98.2772 14.9835 98.4025 15.4684 98.6518 15.8727C98.9545 16.3615 99.3758 16.6059 99.9198 16.6059C100.453 16.6059 100.87 16.3576 101.172 15.8597C101.432 15.4476 101.56 14.9588 101.56 14.3933Z" fill="white"/>
<path d="M109.773 17.4639H108.519L108.415 16.758H108.376C107.947 17.3209 107.335 17.603 106.54 17.603C105.947 17.603 105.467 17.4171 105.105 17.0479C104.777 16.7125 104.613 16.2952 104.613 15.7999C104.613 15.0511 104.933 14.4804 105.577 14.0852C106.22 13.69 107.124 13.4963 108.288 13.5054V13.391C108.288 12.5837 107.853 12.1807 106.983 12.1807C106.363 12.1807 105.816 12.3328 105.344 12.6344L105.06 11.74C105.644 11.3877 106.365 11.2109 107.216 11.2109C108.859 11.2109 109.683 12.0559 109.683 13.7459V16.0027C109.683 16.615 109.713 17.1025 109.773 17.4639ZM108.323 15.3579V14.4128C106.781 14.3868 106.011 14.7989 106.011 15.6478C106.011 15.9676 106.099 16.2068 106.279 16.3667C106.459 16.5266 106.688 16.6059 106.961 16.6059C107.268 16.6059 107.555 16.511 107.816 16.3225C108.079 16.1327 108.24 15.8922 108.3 15.5971C108.315 15.5308 108.323 15.4502 108.323 15.3579Z" fill="white"/>
<path d="M117.713 17.4635H116.473L116.408 16.4794H116.369C115.973 17.2282 115.298 17.6026 114.35 17.6026C113.593 17.6026 112.962 17.3127 112.462 16.7329C111.962 16.1531 111.713 15.4004 111.713 14.4761C111.713 13.4842 111.984 12.6808 112.528 12.0672C113.054 11.4952 113.7 11.2092 114.468 11.2092C115.312 11.2092 115.902 11.4861 116.238 12.0412H116.265V8.52344H117.664V15.8125C117.664 16.4092 117.68 16.9591 117.713 17.4635ZM116.265 14.8791V13.8573C116.265 13.6805 116.252 13.5375 116.226 13.4283C116.148 13.1007 115.978 12.8251 115.721 12.6028C115.461 12.3805 115.148 12.2687 114.786 12.2687C114.265 12.2687 113.857 12.4702 113.557 12.8745C113.26 13.2788 113.109 13.7949 113.109 14.4254C113.109 15.0312 113.252 15.5226 113.538 15.9009C113.841 16.3039 114.249 16.5054 114.76 16.5054C115.218 16.5054 115.585 16.3377 115.864 16.001C116.133 15.6903 116.265 15.3159 116.265 14.8791Z" fill="white"/>
<path d="M129.664 14.3491C129.664 15.2916 129.388 16.0638 128.836 16.6696C128.257 17.2923 127.492 17.603 126.533 17.603C125.612 17.603 124.877 17.3053 124.328 16.7073C123.781 16.1106 123.508 15.3579 123.508 14.4505C123.508 13.5015 123.789 12.7228 124.354 12.1183C124.92 11.5138 125.68 11.2109 126.638 11.2109C127.56 11.2109 128.302 11.5086 128.862 12.1053C129.396 12.6851 129.664 13.4339 129.664 14.3491ZM128.216 14.3933C128.216 13.8278 128.09 13.3429 127.841 12.9386C127.546 12.4498 127.13 12.2054 126.586 12.2054C126.026 12.2054 125.6 12.4498 125.305 12.9386C125.054 13.3429 124.93 13.8356 124.93 14.418C124.93 14.9835 125.056 15.4684 125.305 15.8727C125.608 16.3615 126.029 16.6059 126.573 16.6059C127.106 16.6059 127.526 16.3576 127.828 15.8597C128.085 15.4476 128.216 14.9588 128.216 14.3933Z" fill="white"/>
<path d="M137.177 17.4639H135.781V13.9539C135.781 12.8723 135.36 12.3315 134.513 12.3315C134.098 12.3315 133.764 12.4797 133.505 12.7774C133.246 13.0751 133.117 13.4261 133.117 13.8278V17.4626H131.718V13.0868C131.718 12.5486 131.702 11.9649 131.669 11.3331H132.896L132.961 12.2912H133C133.164 11.9935 133.406 11.7478 133.724 11.5515C134.104 11.3227 134.526 11.207 134.992 11.207C135.577 11.207 136.065 11.3916 136.453 11.7621C136.937 12.2158 137.177 12.8931 137.177 13.7927V17.4639Z" fill="white"/>
<path d="M146.581 12.3553H145.042V15.3323C145.042 16.0889 145.316 16.4672 145.857 16.4672C146.108 16.4672 146.316 16.4464 146.48 16.4035L146.516 17.437C146.24 17.5384 145.877 17.5891 145.43 17.5891C144.878 17.5891 144.449 17.4253 144.138 17.0977C143.826 16.7701 143.672 16.2189 143.672 15.4454V12.3553H142.753V11.3348H143.672V10.2116L145.041 9.80859V11.3335H146.58V12.3553H146.581Z" fill="white"/>
<path d="M153.978 17.4635H152.58V13.9795C152.58 12.881 152.158 12.3311 151.314 12.3311C150.666 12.3311 150.224 12.6496 149.981 13.2866C149.94 13.4205 149.916 13.5843 149.916 13.7767V17.4622H148.52V8.52344H149.916V12.2167H149.942C150.382 11.5446 151.013 11.2092 151.83 11.2092C152.409 11.2092 152.888 11.3938 153.268 11.7643C153.741 12.2258 153.978 12.9122 153.978 13.8196V17.4635Z" fill="white"/>
<path d="M161.609 14.1099C161.609 14.3543 161.591 14.5597 161.557 14.7274H157.367C157.385 15.3332 157.585 15.7947 157.973 16.1145C158.328 16.4005 158.785 16.5435 159.345 16.5435C159.965 16.5435 160.531 16.4473 161.04 16.2536L161.259 17.2C160.663 17.4522 159.961 17.5783 159.149 17.5783C158.176 17.5783 157.409 17.2988 156.855 16.7398C156.297 16.1808 156.021 15.4307 156.021 14.4895C156.021 13.5652 156.279 12.7956 156.797 12.182C157.339 11.5268 158.071 11.1992 158.995 11.1992C159.899 11.1992 160.585 11.5268 161.049 12.182C161.424 12.702 161.609 13.3455 161.609 14.1099ZM160.276 13.7576C160.287 13.3533 160.195 13.0049 160.005 12.7111C159.763 12.3328 159.393 12.143 158.893 12.143C158.437 12.143 158.065 12.3276 157.781 12.6981C157.549 12.9932 157.412 13.3455 157.367 13.7576H160.276Z" fill="white"/>
</svg>
