<svg width="80" height="80" viewBox="0 0 80 80" fill="none" xmlns="http://www.w3.org/2000/svg">
<path d="M13.39 59.47C13.909 59.991 14.3067 60.62 14.5547 61.3123C14.8027 62.0045 14.895 62.743 14.825 63.475C14.4736 66.8629 13.8074 70.2107 12.835 73.475C19.81 71.86 24.07 69.99 26.005 69.01C27.1025 68.4541 28.3664 68.3224 29.555 68.64C32.9622 69.5483 36.4738 70.0056 40 70C59.98 70 75 55.965 75 40C75 24.04 59.98 10 40 10C20.02 10 5 24.04 5 40C5 47.34 8.085 54.15 13.39 59.47ZM10.925 78.995C9.74034 79.2298 8.55184 79.4449 7.36 79.64C6.36 79.8 5.6 78.76 5.995 77.83C6.43896 76.783 6.84588 75.7207 7.215 74.645L7.23 74.595C8.47 70.995 9.48 66.855 9.85 63C3.715 56.85 0 48.8 0 40C0 20.67 17.91 5 40 5C62.09 5 80 20.67 80 40C80 59.33 62.09 75 40 75C36.0383 75.0053 32.0929 74.491 28.265 73.47C25.665 74.785 20.07 77.18 10.925 78.995Z" fill="#1D8751"/>
</svg>
