<svg width="81" height="82" viewBox="0 0 81 82" fill="none" xmlns="http://www.w3.org/2000/svg">
<path d="M79.7842 50.7974C74.375 72.4938 52.4002 85.6979 30.7013 80.2874C9.01133 74.8783 -4.19282 52.9022 1.21887 31.2071C6.62554 9.50815 28.6004 -3.69725 50.293 1.71193C71.9905 7.1212 85.1934 29.0998 79.7842 50.7974Z" fill="#F7931A"/>
<path d="M27.1801 47.82C26.9599 48.3667 26.4018 49.1868 25.1437 48.8754C25.1881 48.94 21.9139 48.0693 21.9139 48.0693L19.708 53.1557L25.4905 54.5974C26.5663 54.8669 27.6206 55.1491 28.6584 55.4149L26.8193 62.7985L31.2579 63.9059L33.0791 56.6008C34.2916 56.9298 35.4685 57.2335 36.6202 57.5196L34.8053 64.7905L39.249 65.8979L41.0879 58.5283C48.6652 59.9622 54.3628 59.3838 56.7612 52.5305C58.6938 47.0125 56.6651 43.8294 52.6784 41.7538C55.5817 41.0843 57.7686 39.1745 58.352 35.2296C59.1582 29.8406 55.0551 26.9437 49.4446 25.011L51.2646 17.7109L46.8209 16.6035L45.0491 23.7112C43.881 23.4201 42.6811 23.1454 41.489 22.8733L43.2735 15.7187L38.8324 14.6113L37.0112 21.9088C36.0443 21.6886 35.0952 21.4708 34.1737 21.2418L34.1788 21.219L28.0506 19.6889L26.8685 24.4349C26.8685 24.4349 30.1655 25.1905 30.0958 25.2373C31.8956 25.6866 32.2208 26.8775 32.1664 27.8218L27.1801 47.82ZM48.1993 49.4665C46.8262 54.9845 37.5353 52.0014 34.5231 51.2535L36.9633 41.4716C39.9753 42.2234 49.6345 43.7117 48.1993 49.4665ZM49.5737 35.1499C48.3208 40.1694 40.5879 37.6192 38.0795 36.994L40.2918 28.1219C42.8002 28.7472 50.8786 29.9141 49.5737 35.1499Z" fill="white"/>
</svg>
