<svg width="78" height="72" viewBox="0 0 78 72" fill="none" xmlns="http://www.w3.org/2000/svg">
<rect x="3.5" y="0.5" width="71" height="71" rx="7.5" stroke="#1D8751"/>
<path d="M31.0424 25.4809V24.4556C31.0424 24.093 31.2352 23.7919 31.5464 23.5936C32.493 23.0256 33.4122 22.246 33.9524 21.2991C34.3119 20.8003 34.602 20.7746 35.6098 20.5931C38.3434 20.1132 41.5704 20.1809 44.1443 20.783C45.125 21.0027 44.786 22.1137 47.2658 23.592C47.2664 23.5924 47.2671 23.5929 47.2677 23.5932C47.2677 23.5932 47.268 23.5934 47.2682 23.5935C47.2746 23.5973 47.2776 23.5989 47.2839 23.6029C47.3684 23.6546 47.7721 23.9292 47.7721 24.4555L47.7722 25.4808C47.7818 25.4833 49.3477 25.4373 50.011 26.6447V23.6037C50.011 17.7472 45.2639 13 39.4073 13C33.5508 13 28.8037 17.7472 28.8037 23.6037V26.6449C29.1823 25.9556 29.9945 25.4809 31.0424 25.4809Z" fill="white"/>
<path d="M31.0423 23.6043C31.0423 18.1258 35.1964 13.6185 40.5267 13.0593C34.2461 12.4004 28.8037 17.3157 28.8037 23.6043V26.6455C29.1823 25.9561 29.9944 25.4815 31.0423 25.4815V23.6043Z" fill="#1D1D23"/>
<path d="M55.8118 56.8593L53.8938 46.1669C53.5128 44.0476 51.647 43.613 51.6238 43.6077L45.3459 42.185L42.9945 40.6029V38.0786C40.7319 39.1542 38.0832 39.1548 35.819 38.0781V40.6029L33.4676 42.185L27.1898 43.6077C27.1665 43.613 25.3007 44.0477 24.9197 46.1669L23.0018 56.8593C23.0016 56.8653 22.8586 59.0002 25.1685 59.0002C26.3826 59.0002 52.4304 59.0002 53.6452 59.0002C55.955 59.0002 55.8122 56.8653 55.8118 56.8593Z" fill="#F0D0B4"/>
<path d="M38.133 38.7877C37.317 38.6629 36.5395 38.4208 35.819 38.0781V40.6029L33.4676 42.185L27.1898 43.6076C27.1665 43.6129 25.3007 44.0477 24.9197 46.1669L23.0018 56.8594C23.0016 56.8653 22.8586 59.0003 25.1685 59.0003H38.133V38.7877Z" fill="#F0D0B4"/>
<path d="M55.8118 56.8599L53.8938 46.1675C53.5128 44.0482 51.647 43.6136 51.6238 43.6083L45.3459 42.1856L42.9951 40.6039L42.7089 45.3821L39.4074 43.0799H39.4068L36.1053 45.3821L35.8191 40.6035L33.4677 42.1856L27.1899 43.6083C27.1666 43.6136 25.3008 44.0483 24.9198 46.1675L23.0018 56.8599C23.0016 56.8659 22.8586 59.0008 25.1685 59.0008C26.3826 59.0008 52.4304 59.0008 53.6452 59.0008C55.955 59.0008 55.8122 56.8659 55.8118 56.8599Z" fill="#1D8751"/>
<path d="M25.2291 56.7343L27.258 45.4237C27.4466 44.374 27.9797 43.7152 28.4956 43.3105L27.1898 43.6065C27.1665 43.6118 25.3007 44.0465 24.9197 46.1658L23.0018 56.8582C23.0016 56.8641 22.8586 58.9991 25.1685 58.9991H27.521C25.0776 58.9991 25.2289 56.7407 25.2291 56.7343Z" fill="#32A86C"/>
<path d="M39.4071 43.0781H39.4066L35.9199 45.1953L36.9206 58.9992C38.4761 58.9992 40.3375 58.9992 41.8931 58.9992L42.8938 45.1952L39.4071 43.0781Z" fill="#E8EFF5"/>
<path d="M28.5693 27.3749C28.5693 28.5226 29.6673 29.4529 31.1348 29.4529V25.2969C29.6673 25.2969 28.5693 26.2273 28.5693 27.3749Z" fill="#F0D0B4"/>
<path d="M50.2453 27.3749C50.2453 28.5226 49.1473 29.4529 47.6797 29.4529V25.2969C49.1473 25.2969 50.2453 26.2273 50.2453 27.3749Z" fill="#F0D0B4"/>
<path d="M47.7717 27.9222V24.2709C47.7717 23.895 47.5473 23.5709 47.2736 23.4123C47.2733 23.4121 47.2676 23.4088 47.2673 23.4086C43.582 20.9629 46.1097 20.8401 42.6963 20.3267C39.8253 19.9279 37.1154 20.0556 34.9383 20.5384C34.538 20.6225 34.2696 20.6738 33.9521 21.1144C33.4158 22.0547 32.4727 22.8558 31.5404 23.4123C31.2698 23.565 31.0422 23.8953 31.0422 24.2709V27.9222L31.042 27.9223V30.7047C31.042 35.3248 34.7868 39.0697 39.407 39.0697C44.0271 39.0697 47.7719 35.3248 47.7719 30.7047V27.9223L47.7717 27.9222Z" fill="#F0D0B4"/>
<path d="M33.3594 30.7041V27.9216L33.3596 27.9215V21.9336C32.0326 23.442 31.0422 23.2953 31.0422 24.2702V27.9214L31.042 27.9215V30.704C31.042 35.7683 35.5132 39.6893 40.5657 38.9887C36.4941 38.4245 33.3594 34.9309 33.3594 30.7041Z" fill="#F0D0B4"/>
<path d="M29.7703 59.0001V52.0946C29.7703 51.7112 29.4595 51.4004 29.0761 51.4004C28.6926 51.4004 28.3818 51.7112 28.3818 52.0946V59.0001H29.7703Z" fill="#32A86C"/>
<path d="M50.4334 59.0001V52.0946C50.4334 51.7112 50.1226 51.4004 49.7391 51.4004C49.3557 51.4004 49.0449 51.7112 49.0449 52.0946V59.0001H50.4334Z" fill="#32A86C"/>
<path d="M41.8934 59.0004L40.4366 46.5336L40.5213 46.3828H38.2935L38.3782 46.5336L36.9209 59.0004H41.8934Z" fill="#E23D3A"/>
<path d="M45.7984 50.9141L44.2083 48.9263C44.208 48.926 44.2079 48.9257 44.2077 48.9255C43.9474 48.6001 44.1361 48.4737 44.2287 48.4344L45.941 47.8332C45.941 47.8332 46.301 47.6909 46.2348 47.3088C46.2348 47.3086 46.2348 47.3086 46.2348 47.3085L45.3467 42.1856L42.9953 40.6035L41.8936 59.0009L45.8335 51.4694C45.834 51.4601 46.003 51.1974 45.7984 50.9141Z" fill="#32A86C"/>
<path d="M33.0158 50.9141L34.6059 48.9263C34.6074 48.9169 34.9183 48.5757 34.5855 48.4344L32.8732 47.8332C32.8732 47.8332 32.5132 47.6909 32.5794 47.3088C33.6281 41.2594 33.4419 42.3331 33.4675 42.1856L35.8189 40.6035L36.9207 59.0009L32.9808 51.4694C32.9803 51.4601 32.8112 51.1974 33.0158 50.9141Z" fill="#32A86C"/>
<path d="M35.8193 40.6035L39.4072 43.0799L36.1056 45.3821L35.8193 40.6035Z" fill="#EEF1F4"/>
<path d="M42.995 40.6035L39.4072 43.0799L42.7088 45.3821L42.995 40.6035Z" fill="#EEF1F4"/>
<path d="M40.3352 46.3828H38.2935L38.3782 46.5336L36.9209 59.0004H39.0552L40.4366 46.5336L40.3352 46.3828Z" fill="#FA615F"/>
<path d="M39.4075 43.0781L37.2734 44.5662L38.3782 46.5323C39.0982 46.5323 39.7167 46.5323 40.4367 46.5323L41.5416 44.5662L39.4075 43.0781Z" fill="#D22E2E"/>
<path d="M39.4075 43.0781L37.2734 44.5662L38.3782 46.5323C39.0982 46.5323 39.7167 46.5323 40.4367 46.5323L41.5416 44.5662L39.4075 43.0781Z" fill="#E23D3A"/>
<path d="M38.7512 43.5371L37.2734 44.5675L38.3782 46.5337C39.0983 46.5337 39.7113 46.5337 40.435 46.5337L38.7512 43.5371Z" fill="#FA615F"/>
<circle cx="74.5" cy="56.5" r="3.5" fill="#1D8751"/>
<circle cx="3.5" cy="35.5" r="3.5" fill="#1D8751"/>
</svg>
