<svg width="20" height="20" viewBox="0 0 20 20" fill="none" xmlns="http://www.w3.org/2000/svg">
<path d="M15.818 1.86667C14.7499 1.10264 13.5418 0.556471 12.2626 0.259338C10.9835 -0.037795 9.65831 -0.0800688 8.36281 0.13493C7.06731 0.349929 5.82684 0.81799 4.71223 1.51239C3.59763 2.20679 2.6307 3.11393 1.86667 4.18201C1.10264 5.25009 0.556471 6.45821 0.259338 7.73737C-0.0377951 9.01653 -0.0800688 10.3417 0.13493 11.6372C0.349929 12.9327 0.817991 14.1732 1.51239 15.2878C2.20679 16.4024 3.11393 17.3693 4.18201 18.1333L15.818 1.86667Z" fill="#32A86C"/>
<path d="M4.18201 18.1333C5.2501 18.8974 6.45821 19.4435 7.73737 19.7406C9.01653 20.0378 10.3417 20.08 11.6372 19.865C12.9327 19.65 14.1732 19.182 15.2878 18.4876C16.4024 17.7932 17.3693 16.8861 18.1333 15.818C18.8974 14.7499 19.4435 13.5418 19.7407 12.2626C20.0378 10.9834 20.0801 9.65829 19.8651 8.36279C19.6501 7.06729 19.182 5.82682 18.4876 4.71221C17.7932 3.59761 16.8861 2.6307 15.818 1.86667L4.18201 18.1333Z" fill="#1D8751"/>
</svg>
