<svg width="78" height="72" viewBox="0 0 78 72" fill="none" xmlns="http://www.w3.org/2000/svg">
<path d="M66 18.3887C66 31.2202 66 51.2458 66 51.2458C66.0003 52.2419 65.608 53.1971 64.9096 53.9014C64.211 54.6056 63.2637 55.0012 62.2759 55.0009H15.7241C14.7363 55.0012 13.789 54.6056 13.0904 53.9014C12.392 53.1972 11.9997 52.2419 12 51.2459V22.1437C11.9997 21.1477 12.392 20.1925 13.0904 19.4882C13.789 18.7839 14.7363 18.3884 15.7241 18.3887H32.4828" fill="#386AB5"/>
<path d="M66.6476 17.7894C67.0901 18.001 67.3734 18.4495 67.3766 18.9433V25.716C67.2983 31.8996 64.3946 37.7008 59.5076 41.4372L55.1624 44.9056C54.5906 45.3582 53.7861 45.3582 53.2142 44.9056L48.869 41.4372C43.982 37.7008 41.0783 31.8996 41 25.716V18.9433C41.0032 18.4495 41.2865 18.0011 41.729 17.7894L53.0087 12.2724C53.7539 11.9092 54.6228 11.9092 55.3679 12.2724L66.6476 17.7894Z" fill="#32A86C"/>
<path d="M67.3769 18.9437C67.3737 18.4498 67.0904 18.0014 66.6479 17.7897L61.0081 15.0312L46.7295 39.5438C47.3923 40.2211 48.1067 40.8545 48.8693 41.4376L53.2145 44.9059C53.7864 45.3585 54.5909 45.3585 55.1627 44.9059L59.5079 41.4376C64.3949 37.7012 67.2986 31.8999 67.3769 25.7163V18.9437Z" fill="#1D8751"/>
<path d="M54.1889 32.6861C57.8307 32.6861 60.783 29.7225 60.783 26.0667C60.783 22.4109 57.8307 19.4473 54.1889 19.4473C50.547 19.4473 47.5947 22.4109 47.5947 26.0667C47.5947 29.7225 50.547 32.6861 54.1889 32.6861Z" fill="white"/>
<path d="M52.9894 28.9239C52.7951 28.9242 52.6086 28.8462 52.4715 28.7075L51.2722 27.4983C50.9861 27.2099 50.9861 26.7421 51.2722 26.4536C51.5583 26.1652 52.0222 26.1652 52.3083 26.4536L52.9894 27.1405L56.0683 24.036C56.3548 23.75 56.8166 23.7511 57.1017 24.0386C57.3868 24.3261 57.388 24.7917 57.1044 25.0806L53.5075 28.7074C53.3703 28.8462 53.1838 28.9242 52.9894 28.9239Z" fill="#24AE5F"/>
<path d="M31.5512 46.5515H16.8656C16.3515 46.5515 15.9346 46.1312 15.9346 45.6126C15.9346 45.0941 16.3514 44.6738 16.8656 44.6738H31.5512C32.0654 44.6738 32.4823 45.0941 32.4823 45.6126C32.4823 46.1312 32.0655 46.5515 31.5512 46.5515Z" fill="white"/>
<path d="M24.103 50.3054H16.8656C16.3515 50.3054 15.9346 49.8851 15.9346 49.3666C15.9346 48.848 16.3514 48.4277 16.8656 48.4277H24.103C24.6172 48.4277 25.0341 48.848 25.0341 49.3666C25.0341 49.8851 24.6172 50.3054 24.103 50.3054Z" fill="white"/>
<path d="M32.186 38.5301L28.2784 36.9081C27.7757 36.7015 27.4562 36.2722 27.4545 35.8013V34.5284C27.5856 34.4022 27.7091 34.2705 27.8243 34.1338C28.3506 33.5129 28.7602 32.8276 29.0389 32.1018C29.5506 31.9748 29.9038 31.5813 29.9091 31.1322V29.7736C29.9072 29.4848 29.7582 29.2107 29.5 29.0207V27.0566C29.5 27.0566 29.9856 24 25.0001 24C20.014 24 20.5001 27.0566 20.5001 27.0566V29.0207C20.2419 29.2106 20.0928 29.4848 20.091 29.7736V31.1322C20.0933 31.4799 20.3068 31.8025 20.6567 31.987C20.9296 32.9131 21.434 33.7796 22.1364 34.5284V35.7697C22.1349 36.2248 21.8364 36.6421 21.3596 36.8561L17.71 38.5087C16.6604 38.9796 16.0033 39.8985 16 40.9V42H34V40.9665C33.996 39.9296 33.2926 38.9848 32.186 38.5301Z" fill="white"/>
<rect x="3.5" y="0.5" width="71" height="71" rx="7.5" stroke="#1D8751"/>
<circle cx="74.5" cy="56.5" r="3" fill="#1D8751" stroke="#1D8751"/>
<circle cx="3.5" cy="15.5" r="3" fill="#1D8751" stroke="#1D8751"/>
</svg>
