<svg width="101" height="101" viewBox="0 0 101 101" fill="none" xmlns="http://www.w3.org/2000/svg">
<g clip-path="url(#clip0_1574_131460)">
<path d="M79.1783 9.78586C73.892 6.00441 67.9126 3.30121 61.5816 1.83059C55.2506 0.359968 48.6919 0.150741 42.28 1.21485C35.8681 2.27895 29.7286 4.59556 24.212 8.03238C18.6954 11.4692 13.9097 15.959 10.1283 21.2453C6.34684 26.5316 3.64364 32.511 2.17302 38.842C0.702407 45.173 0.493179 51.7317 1.55729 58.1436C2.62139 64.5555 4.93799 70.695 8.37482 76.2116C11.8117 81.7282 16.3014 86.5138 21.5877 90.2953L50.383 50.0406L79.1783 9.78586Z" fill="#32A86C"/>
<path d="M21.5893 90.2962C26.8756 94.0776 32.855 96.7808 39.186 98.2514C45.517 99.7221 52.0757 99.9313 58.4876 98.8672C64.8995 97.8031 71.039 95.4865 76.5556 92.0496C82.0722 88.6128 86.8578 84.1231 90.6393 78.8367C94.4207 73.5504 97.1239 67.571 98.5946 61.24C100.065 54.909 100.274 48.3503 99.2103 41.9384C98.1462 35.5265 95.8296 29.387 92.3928 23.8704C88.9559 18.3538 84.4662 13.5682 79.1799 9.78674L50.3846 50.0415L21.5893 90.2962Z" fill="#1D8751"/>
<path d="M50.1198 85.2471C50.0336 85.2471 49.9474 85.2391 49.8623 85.2226C41.5978 83.6331 34.0943 79.1845 28.7341 72.6958C23.3746 66.207 20.4229 57.9984 20.4229 49.5823V25.7403C20.4229 25.1448 20.8097 24.618 21.378 24.4403L49.6696 15.5766C49.8128 15.5266 49.9698 15.5032 50.1198 15.5H50.1214C50.2757 15.5 50.4274 15.5266 50.5705 15.5766L78.8616 24.4403C79.4299 24.6185 79.8168 25.1448 79.8168 25.7403V49.5823C79.8168 57.9984 76.8651 66.207 71.505 72.6958C66.1454 79.1845 58.6418 83.6331 50.3774 85.2226C50.2922 85.2391 50.206 85.2471 50.1198 85.2471ZM23.1473 26.7407V49.5823C23.1473 65.5621 34.4747 79.3623 50.1198 82.4965C65.7649 79.3623 77.0918 65.5621 77.0918 49.5823V26.7407L50.1198 18.2905L23.1473 26.7407Z" fill="white"/>
<path d="M50.1201 77.439C50.0095 77.439 49.8988 77.4257 49.7913 77.399C43.641 75.8686 38.0914 72.2672 34.1638 67.2583C30.2223 62.2307 28.0518 55.9538 28.0518 49.5831V31.345C28.0518 30.7495 28.4386 30.2233 29.0064 30.0455L49.7125 23.5584C49.9775 23.4753 50.2622 23.4753 50.5272 23.5584L71.2334 30.0455C71.8011 30.2233 72.188 30.7495 72.188 31.345V49.5831C72.188 54.2398 71.0344 58.8751 68.8521 62.988C68.4993 63.6526 67.675 63.9048 67.0104 63.5526C66.3458 63.1997 66.093 62.3755 66.4453 61.7109C68.42 57.9902 69.4635 53.7965 69.4635 49.5831V32.3459L50.1196 26.2855L30.7763 32.3459V49.5831C30.7763 61.4086 38.7135 71.6765 50.1196 74.6708C53.2884 73.8391 56.2327 72.4316 58.8763 70.4846C59.4819 70.0387 60.3349 70.168 60.7808 70.7735C61.2272 71.3791 61.0979 72.2321 60.4918 72.678C57.4688 74.905 54.0898 76.4928 50.4485 77.399C50.341 77.4257 50.2303 77.439 50.1201 77.439Z" fill="white"/>
<path d="M47.6456 60.626C47.2966 60.626 46.9486 60.493 46.6825 60.2269L37.5602 51.1047C37.0281 50.5731 37.0281 49.7105 37.5602 49.1784L42.1839 44.5547C42.4393 44.2993 42.7857 44.1556 43.147 44.1556C43.5083 44.1556 43.8548 44.2993 44.1102 44.5547L47.6456 48.0902L56.1293 39.6059C56.6615 39.0743 57.5241 39.0738 58.0562 39.6059L62.6798 44.2296C62.9353 44.485 63.0789 44.8314 63.0789 45.1927C63.0789 45.5541 62.9353 45.9005 62.6798 46.1559L48.6088 60.2269C48.3427 60.493 47.9942 60.626 47.6456 60.626ZM40.4497 50.1415L47.6456 57.337L59.7899 45.1927L57.0925 42.4959L48.6088 50.9802C48.3534 51.2356 48.007 51.3787 47.6456 51.3787C47.2843 51.3787 46.9379 51.2356 46.6825 50.9802L43.147 47.4447L40.4497 50.1415Z" fill="white"/>
<path d="M64.1796 68.7792C63.8215 68.7792 63.4698 68.6344 63.2165 68.3801C62.9632 68.1268 62.8174 67.7751 62.8174 67.4169C62.8174 67.0588 62.9632 66.7071 63.2165 66.4538C63.4698 66.2005 63.8215 66.0547 64.1796 66.0547C64.5378 66.0547 64.8895 66.2005 65.1428 66.4538C65.3961 66.7071 65.5419 67.0588 65.5419 67.4169C65.5419 67.7751 65.3961 68.1268 65.1428 68.3801C64.8895 68.6344 64.5378 68.7792 64.1796 68.7792Z" fill="white"/>
</g>
<defs>
<clipPath id="clip0_1574_131460">
<rect width="100" height="100" fill="white" transform="translate(0.333008 0.5)"/>
</clipPath>
</defs>
</svg>
