<svg width="78" height="72" viewBox="0 0 78 72" fill="none" xmlns="http://www.w3.org/2000/svg">
<rect x="3.5" y="0.5" width="71" height="71" rx="7.5" stroke="#1D8751"/>
<g clip-path="url(#clip0_2615_6398)">
<path d="M41.3005 13.7676H22.9005C22.0537 13.7676 21.3672 14.4541 21.3672 15.3009V47.5009C21.3672 48.3477 22.0537 49.0342 22.9005 49.0342H41.3005C42.1474 49.0342 42.8339 48.3477 42.8339 47.5009V15.3009C42.8339 14.4541 42.1474 13.7676 41.3005 13.7676Z" fill="#386AB5"/>
<path d="M42.8324 33.7005V20.6672C42.8324 20.0572 43.0747 19.4722 43.5061 19.0408C43.9374 18.6095 44.5224 18.3672 45.1324 18.3672C45.7424 18.3672 46.3274 18.6095 46.7588 19.0408C47.1901 19.4722 47.4324 20.0572 47.4324 20.6672V36.0005C47.4324 35.3905 47.6747 34.8055 48.1061 34.3742C48.5374 33.9428 49.1224 33.7005 49.7324 33.7005C50.3424 33.7005 50.9274 33.9428 51.3588 34.3742C51.7901 34.8055 52.0324 35.3905 52.0324 36.0005V36.7672C52.0324 36.4652 52.092 36.1662 52.2078 35.8873C52.3235 35.6084 52.4932 35.355 52.7071 35.1419C52.9471 34.8979 53.2413 34.7141 53.5658 34.6052C53.8106 34.5123 54.0705 34.4656 54.3324 34.4672C54.9424 34.4672 55.5274 34.7095 55.9588 35.1408C56.3901 35.5722 56.6324 36.1572 56.6324 36.7672V37.5339C56.6324 36.9239 56.8747 36.3388 57.3061 35.9075C57.7374 35.4762 58.3224 35.2339 58.9324 35.2339C59.5424 35.2339 60.1274 35.4762 60.5588 35.9075C60.9901 36.3388 61.2324 36.9239 61.2324 37.5339V40.5699C61.2318 41.0976 61.1411 41.6213 60.9641 42.1185L57.3991 52.1005H42.0658L40.9694 49.0339L38.5008 42.1185C38.3238 41.6213 38.233 41.0976 38.2324 40.5699V33.6929C38.2328 33.085 38.4745 32.5022 38.9043 32.0724C39.3341 31.6426 39.9169 31.4009 40.5248 31.4005C41.1366 31.4019 41.7233 31.6443 42.1578 32.0752C42.3716 32.2884 42.5413 32.5417 42.6571 32.8206C42.7729 33.0995 42.8324 33.3985 42.8324 33.7005Z" fill="#FFC477"/>
<path d="M61.2329 37.5324V40.5684C61.2323 41.0962 61.1416 41.6199 60.9646 42.1171L57.3996 52.0991H55.0996L58.6646 42.1171C58.8416 41.6199 58.9323 41.0962 58.9329 40.5684V37.5324C58.933 37.2304 58.8734 36.9314 58.7576 36.6525C58.6418 36.3736 58.4721 36.1203 58.2583 35.9071C58.115 35.766 57.9554 35.6424 57.7829 35.5391C58.1331 35.3386 58.5295 35.2329 58.9329 35.2324C59.5429 35.2324 60.128 35.4747 60.5593 35.9061C60.9906 36.3374 61.2329 36.9224 61.2329 37.5324Z" fill="#F79009"/>
<path d="M53.5664 52.0996H57.3997V58.2329H53.5664V52.0996Z" fill="#386AB5"/>
<path d="M49.7324 52.0996H53.5658V58.2329H49.7324V52.0996Z" fill="#386AB5"/>
<path d="M45.9004 52.0996H49.7337V58.2329H45.9004V52.0996Z" fill="#386AB5"/>
<path d="M42.0664 52.0996H45.8997V58.2329H42.0664V52.0996Z" fill="#386AB5"/>
<path d="M38.3876 49.0337L35.1676 53.6337H18.3009L16.7676 37.5337V34.4671C16.7676 33.6537 17.0907 32.8737 17.6658 32.2986C18.2409 31.7235 19.0209 31.4004 19.8342 31.4004H25.2009C26.0142 31.4004 26.7943 31.7235 27.3694 32.2986C27.9445 32.8737 28.2676 33.6537 28.2676 34.4671C28.2676 35.2804 27.9445 36.0604 27.3694 36.6355C26.7943 37.2106 26.0142 37.5337 25.2009 37.5337H21.3676V47.5004C21.3688 47.9067 21.5307 48.296 21.818 48.5833C22.1053 48.8706 22.4946 49.0325 22.9009 49.0337H38.3876Z" fill="#FFC477"/>
<path d="M32.0992 30.634C35.91 30.634 38.9992 27.5447 38.9992 23.734C38.9992 19.9232 35.91 16.834 32.0992 16.834C28.2885 16.834 25.1992 19.9232 25.1992 23.734C25.1992 27.5447 28.2885 30.634 32.0992 30.634Z" fill="#FEC228"/>
<path d="M38.9997 23.734C38.9997 25.564 38.2728 27.319 36.9788 28.613C35.6848 29.907 33.9297 30.634 32.0997 30.634C31.5841 30.633 31.07 30.5765 30.5664 30.4653C32.0912 30.1171 33.4526 29.2615 34.4278 28.0387C35.4029 26.8158 35.9339 25.2981 35.9339 23.734C35.9339 22.1699 35.4029 20.6522 34.4278 19.4293C33.4526 18.2064 32.0912 17.3508 30.5664 17.0027C31.07 16.8915 31.5841 16.8349 32.0997 16.834C33.9297 16.834 35.6848 17.5609 36.9788 18.8549C38.2728 20.1489 38.9997 21.904 38.9997 23.734Z" fill="#FEC228"/>
<path d="M18.3008 53.6328H35.1674V58.2328H18.3008V53.6328Z" fill="#386AB5"/>
<path d="M47.4324 20.6667V36H45.1324V20.6667C45.1327 20.2627 45.0265 19.8658 44.8246 19.5159C44.6228 19.1659 44.3323 18.8754 43.9824 18.6734C44.3322 18.4714 44.7289 18.3652 45.1328 18.3652C45.5366 18.3653 45.9334 18.4717 46.2831 18.6737C46.6327 18.8758 46.9231 19.1663 47.1248 19.5162C47.3266 19.866 47.4327 20.2629 47.4324 20.6667Z" fill="#F79009"/>
<path d="M57.6246 22.4243L58.7087 23.5084L61.7754 20.4417C61.9191 20.298 61.9998 20.103 61.9998 19.8997C61.9998 19.6964 61.9191 19.5015 61.7754 19.3577L58.7087 16.291L57.6246 17.3751L59.3826 19.133H50.5V20.6664H59.3826L57.6246 22.4243Z" fill="white"/>
<path d="M53.0236 29.6412L54.1076 28.5572L52.3497 26.7992H61.2323V25.2659H52.3497L54.1076 23.5079L53.0236 22.4238L49.9569 25.4905C49.8132 25.6343 49.7324 25.8292 49.7324 26.0325C49.7324 26.2358 49.8132 26.4308 49.9569 26.5746L53.0236 29.6412Z" fill="white"/>
<path d="M61.103 35.3637C60.5595 34.8184 59.83 34.4988 59.0608 34.469C58.2915 34.4391 57.5394 34.7012 56.9553 35.2027C56.6872 34.7454 56.3042 34.3661 55.8442 34.1025C55.3843 33.8389 54.8634 33.7002 54.3333 33.7C53.9905 33.6952 53.6497 33.755 53.329 33.8763C52.9736 34.0019 52.6457 34.1945 52.363 34.4437C52.0932 33.9856 51.7089 33.6055 51.2479 33.3407C50.7869 33.0759 50.265 32.9355 49.7333 32.9333C49.1938 32.9349 48.6645 33.0805 48.2 33.355V20.6667C48.2 19.8533 47.8769 19.0733 47.3018 18.4982C46.7267 17.9231 45.9467 17.6 45.1333 17.6C44.5938 17.6016 44.0645 17.7471 43.6 18.0217V15.3C43.5982 14.6906 43.3553 14.1066 42.9243 13.6757C42.4934 13.2447 41.9094 13.0018 41.3 13H22.9C22.2906 13.0018 21.7066 13.2447 21.2757 13.6757C20.8447 14.1066 20.6018 14.6906 20.6 15.3V30.6333H19.8333C18.8167 30.6333 17.8416 31.0372 17.1228 31.7561C16.4039 32.475 16 33.45 16 34.4667V37.6023L17.5333 53.6717V58.2333C17.5333 58.4367 17.6141 58.6317 17.7579 58.7754C17.9017 58.9192 18.0967 59 18.3 59H35.1667C35.37 59 35.565 58.9192 35.7088 58.7754C35.8526 58.6317 35.9333 58.4367 35.9333 58.2333V53.8787L38.7853 49.8H40.4337L41.3 52.2303V58.2333C41.3 58.4367 41.3808 58.6317 41.5245 58.7754C41.6683 58.9192 41.8633 59 42.0667 59H57.4C57.6033 59 57.7983 58.9192 57.9421 58.7754C58.0859 58.6317 58.1667 58.4367 58.1667 58.2333V52.2303L61.6857 42.371C61.8928 41.7929 61.9991 41.1834 62 40.5693V37.5333C62.0003 37.1305 61.9213 36.7315 61.7673 36.3593C61.6134 35.987 61.3877 35.6487 61.103 35.3637ZM34.4 57.4667H19.0667V54.4H34.4V57.4667ZM34.768 52.8667H18.9977L17.5333 37.5333V34.4667C17.5352 33.8572 17.7781 33.2733 18.209 32.8423C18.6399 32.4114 19.2239 32.1685 19.8333 32.1667H25.2C25.81 32.1667 26.395 32.409 26.8263 32.8403C27.2577 33.2717 27.5 33.8567 27.5 34.4667C27.5 35.0767 27.2577 35.6617 26.8263 36.093C26.395 36.5243 25.81 36.7667 25.2 36.7667H21.3667C21.1633 36.7667 20.9683 36.8474 20.8246 36.9912C20.6808 37.135 20.6 37.33 20.6 37.5333V47.5C20.6018 48.1094 20.8447 48.6934 21.2757 49.1243C21.7066 49.5553 22.2906 49.7982 22.9 49.8H36.9147L34.768 52.8667ZM22.9 48.2667C22.6967 48.2667 22.5017 48.1859 22.3579 48.0421C22.2141 47.8983 22.1333 47.7033 22.1333 47.5V45.2H35.9333V43.6667H22.1333V38.3H25.2C26.2167 38.3 27.1917 37.8961 27.9106 37.1772C28.6295 36.4584 29.0333 35.4833 29.0333 34.4667C29.0333 33.45 28.6295 32.475 27.9106 31.7561C27.1917 31.0372 26.2167 30.6333 25.2 30.6333H22.1333V15.3C22.1333 15.0967 22.2141 14.9017 22.3579 14.7579C22.5017 14.6141 22.6967 14.5333 22.9 14.5333H41.3C41.5033 14.5333 41.6983 14.6141 41.8421 14.7579C41.9859 14.9017 42.0667 15.0967 42.0667 15.3V31.0627C41.6011 30.7832 41.0687 30.6349 40.5257 30.6333C39.715 30.6354 38.9381 30.9583 38.3649 31.5315C37.7916 32.1048 37.4687 32.8817 37.4667 33.6923V40.5693C37.4682 41.1859 37.5745 41.7977 37.781 42.3787L39.8817 48.2667H22.9ZM45.1333 57.4667H42.8333V52.8667H45.1333V57.4667ZM48.9667 57.4667H46.6667V52.8667H48.9667V57.4667ZM52.8 57.4667H50.5V52.8667H52.8V57.4667ZM56.6333 57.4667H54.3333V52.8667H56.6333V57.4667ZM60.4667 40.5693C60.4657 41.0081 60.3906 41.4436 60.2443 41.8573L56.8633 51.3333H42.6033L39.2223 41.865C39.0767 41.4485 39.0016 41.0106 39 40.5693V33.6923C39.0005 33.491 39.0407 33.2917 39.1182 33.1058C39.1957 32.92 39.3091 32.7513 39.4518 32.6092C39.5946 32.4672 39.7639 32.3547 39.9501 32.2781C40.1363 32.2015 40.3358 32.1623 40.5372 32.1628C40.7385 32.1633 40.9378 32.2035 41.1237 32.281C41.3095 32.3585 41.4782 32.4719 41.6203 32.6146C41.7623 32.7574 41.8748 32.9267 41.9514 33.1129C42.028 33.2992 42.0672 33.4986 42.0667 33.7V39.8333H43.6V20.6667C43.603 20.2609 43.7655 19.8727 44.0524 19.5858C44.3393 19.2989 44.7276 19.1363 45.1333 19.1333C45.5396 19.1345 45.9289 19.2965 46.2162 19.5838C46.5035 19.8711 46.6655 20.2604 46.6667 20.6667V39.8333H48.2V36C48.203 35.5943 48.3655 35.206 48.6524 34.9191C48.9393 34.6322 49.3276 34.4697 49.7333 34.4667C50.1396 34.4679 50.5289 34.6298 50.8162 34.9171C51.1035 35.2044 51.2655 35.5937 51.2667 36V39.8333H52.8V36.7667C52.8001 36.5655 52.8402 36.3664 52.9178 36.1808C52.9955 35.9953 53.1092 35.827 53.2523 35.6857C53.4145 35.5146 53.6177 35.3879 53.8427 35.3177C54 35.2611 54.1661 35.2326 54.3333 35.2333C54.7396 35.2345 55.1289 35.3965 55.4162 35.6838C55.7035 35.9711 55.8655 36.3604 55.8667 36.7667V40.6H57.4V37.5333C57.4012 37.127 57.5631 36.7377 57.8504 36.4504C58.1377 36.1632 58.527 36.0012 58.9333 36C59.3391 36.003 59.7273 36.1655 60.0142 36.4524C60.3011 36.7393 60.4637 37.1276 60.4667 37.5333V40.5693Z" fill="white"/>
<path d="M32.1003 16.0664C30.5839 16.0664 29.1017 16.516 27.8409 17.3585C26.5801 18.2009 25.5975 19.3983 25.0172 20.7992C24.4369 22.2001 24.2851 23.7416 24.5809 25.2288C24.8767 26.716 25.6069 28.082 26.6791 29.1542C27.7513 30.2264 29.1174 30.9566 30.6046 31.2524C32.0918 31.5482 33.6333 31.3964 35.0342 30.8161C36.4351 30.2359 37.6324 29.2532 38.4749 27.9924C39.3173 26.7317 39.7669 25.2494 39.7669 23.7331C39.7637 21.7007 38.9549 19.7526 37.5178 18.3155C36.0808 16.8784 34.1326 16.0697 32.1003 16.0664ZM32.1003 29.8664C30.8872 29.8664 29.7014 29.5067 28.6928 28.8328C27.6841 28.1588 26.898 27.2009 26.4338 26.0802C25.9696 24.9595 25.8481 23.7263 26.0848 22.5365C26.3214 21.3468 26.9056 20.2539 27.7633 19.3962C28.6211 18.5384 29.714 17.9542 30.9037 17.7176C32.0935 17.4809 33.3267 17.6024 34.4474 18.0666C35.5681 18.5308 36.526 19.317 37.1999 20.3256C37.8739 21.3342 38.2336 22.52 38.2336 23.7331C38.2314 25.359 37.5845 26.9178 36.4347 28.0675C35.285 29.2173 33.7262 29.8642 32.1003 29.8664Z" fill="white"/>
<path d="M34.4008 25.2661C34.3983 25.7404 34.2498 26.2024 33.9755 26.5892C33.7011 26.9761 33.3142 27.269 32.8674 27.4281V28.3328H31.3341V27.4281C30.8873 27.269 30.5005 26.9761 30.2261 26.5892C29.9517 26.2024 29.8032 25.7404 29.8008 25.2661H31.3341C31.3341 25.4178 31.3791 25.566 31.4633 25.6921C31.5476 25.8182 31.6673 25.9164 31.8074 25.9745C31.9475 26.0325 32.1016 26.0477 32.2504 26.0181C32.3991 25.9885 32.5357 25.9155 32.6429 25.8083C32.7501 25.701 32.8231 25.5644 32.8527 25.4157C32.8823 25.267 32.8671 25.1128 32.8091 24.9728C32.7511 24.8327 32.6528 24.7129 32.5267 24.6287C32.4006 24.5444 32.2524 24.4995 32.1008 24.4995C31.5614 24.4953 31.0406 24.3017 30.6296 23.9524C30.2185 23.6032 29.9432 23.1206 29.8518 22.589C29.7605 22.0574 29.8589 21.5106 30.1299 21.0442C30.4008 20.5778 30.8271 20.2215 31.3341 20.0375V19.1328H32.8674V20.0375C33.3142 20.1966 33.7011 20.4895 33.9755 20.8764C34.2498 21.2632 34.3983 21.7252 34.4008 22.1995H32.8674C32.8674 22.0478 32.8225 21.8996 32.7382 21.7735C32.654 21.6475 32.5343 21.5492 32.3942 21.4912C32.2541 21.4331 32.0999 21.418 31.9512 21.4475C31.8025 21.4771 31.6659 21.5501 31.5587 21.6574C31.4514 21.7646 31.3784 21.9012 31.3488 22.0499C31.3193 22.1986 31.3344 22.3528 31.3925 22.4929C31.4505 22.633 31.5488 22.7527 31.6748 22.8369C31.8009 22.9212 31.9491 22.9661 32.1008 22.9661C32.7102 22.968 33.2942 23.2109 33.7251 23.6418C34.1561 24.0728 34.399 24.6567 34.4008 25.2661Z" fill="white"/>
</g>
<circle cx="74.5" cy="56.5" r="3.5" fill="#1D8751"/>
<circle cx="3.5" cy="15.5" r="3.5" fill="#1D8751"/>
<defs>
<clipPath id="clip0_2615_6398">
<rect width="46" height="46" fill="white" transform="translate(16 13)"/>
</clipPath>
</defs>
</svg>
