<svg width="78" height="72" viewBox="0 0 78 72" fill="none" xmlns="http://www.w3.org/2000/svg">
<path d="M56.8092 15.2261V26.3551C56.8018 26.3625 56.787 26.3773 56.7795 26.3848L51.6157 31.5486H47.906C46.6966 31.5486 45.6134 32.1348 44.9383 33.0325H34.5512V37.4841V41.9357V46.3873V50.839H43.4544H47.906H50.8737V53.8067H31.5834V31.5486C31.5834 27.4532 28.2595 24.1293 24.1641 24.1293V21.7773C24.1641 21.5622 24.2086 21.3544 24.2976 21.1615H30.0995C30.9157 21.1615 31.5834 20.4938 31.5834 19.6777V13.8757C31.7763 13.7867 31.9841 13.7422 32.1992 13.7422H55.3254C56.1415 13.7422 56.8092 14.4099 56.8092 15.2261Z" fill="#EEF1F4"/>
<path d="M48.833 45.4977C48.4769 45.2158 48.1727 44.8819 47.9353 44.5109C47.6682 44.1251 47.4679 43.7022 47.3418 43.2497H47.3343L44.1959 46.388L43.454 46.6848L40.7088 47.7829C40.5605 47.8422 40.4047 47.8719 40.2488 47.8719C39.5588 47.8719 39.0024 47.3155 39.0024 46.6255C39.0024 46.5438 39.0098 46.4622 39.0247 46.388C39.0395 46.3138 39.0617 46.2397 39.0914 46.1655L40.4863 42.6784L41.2282 41.9364L45.6798 37.4848C44.8637 37.4848 44.1959 36.8171 44.1959 36.0009V35.259C44.1959 34.4206 44.4705 33.649 44.9379 33.0332H34.5508V50.8397H43.454H47.9056H50.8734V47.13L48.833 45.4977Z" fill="#FEC228"/>
<path d="M34.5508 16.709H53.8411V19.6767H34.5508V16.709Z" fill="#FA615F"/>
<path d="M31.5817 13.875V19.6769C31.5817 20.4931 30.914 21.1608 30.0978 21.1608H24.2959C24.3701 20.9976 24.474 20.8492 24.6001 20.7231L31.144 14.1792C31.2701 14.0531 31.4185 13.9492 31.5817 13.875Z" fill="#32A86C"/>
<path d="M47.1628 36V42.0245C47.1628 42.4474 47.2221 42.8555 47.3408 43.2487H47.3334L44.195 46.3871L40.4854 42.6774L41.2273 41.9355L45.6789 37.4839C46.087 37.4839 46.4579 37.3206 46.725 37.0461C46.9995 36.779 47.1628 36.4081 47.1628 36Z" fill="#FA615F"/>
<path d="M56.8075 26.3552C57.2972 25.8804 57.9575 25.6133 58.6327 25.6133C59.3598 25.6133 60.0127 25.9101 60.4875 26.3849C60.9624 26.8597 61.2592 27.5126 61.2592 28.2397C61.2592 28.9297 60.9846 29.5975 60.4875 30.0946L56.1546 34.4275L50.1301 40.452V36.7423C50.1301 36.1265 49.8779 35.5701 49.4772 35.1694C49.225 34.9172 48.9059 34.7242 48.5498 34.613L51.614 31.5488L56.7779 26.3849C56.7853 26.3775 56.8001 26.3626 56.8075 26.3552Z" fill="#FA615F"/>
<path d="M44.1945 46.3874L43.4526 46.6842L40.7074 47.7823C40.559 47.8416 40.4032 47.8713 40.2474 47.8713C39.5574 47.8713 39.001 47.3148 39.001 46.6248C39.001 46.5432 39.0084 46.4616 39.0232 46.3874C39.0381 46.3132 39.0603 46.239 39.09 46.1648L40.4848 42.6777L44.1945 46.3874Z" fill="#AAB2BD"/>
<path d="M59.0334 44.9043L60.5172 53.8075H50.8721V50.8398V47.1301L59.0334 44.9043Z" fill="#32A86C"/>
<path d="M46.7253 37.0466C46.4582 37.3211 46.0872 37.4843 45.6792 37.4843C44.8631 37.4843 44.1953 36.8166 44.1953 36.0004V35.2585C44.1953 34.4201 44.4698 33.6485 44.9372 33.0327C45.6124 32.135 46.6956 31.5488 47.905 31.5488H51.6147L48.5505 34.613C48.3502 34.5537 48.1276 34.5166 47.905 34.5166C47.4969 34.5166 47.1631 34.8504 47.1631 35.2585V36.0004C47.1631 36.4085 46.9998 36.7795 46.7253 37.0466Z" fill="#F0D0B4"/>
<path d="M56.5495 35.1474C58.1818 38.1448 59.035 41.4984 59.035 44.9039L50.8737 47.1297L48.8334 45.4974C48.4773 45.2155 48.1731 44.8816 47.9357 44.5106C47.6686 44.1248 47.4683 43.7019 47.3421 43.2493C47.2234 42.8561 47.1641 42.4481 47.1641 42.0252V36.0006V35.2587C47.1641 34.8506 47.4979 34.5168 47.906 34.5168C48.1286 34.5168 48.3512 34.5539 48.5515 34.6132C48.9076 34.7245 49.2266 34.9174 49.4789 35.1697C49.8795 35.5703 50.1318 36.1268 50.1318 36.7426V40.4523L56.1563 34.4277L56.5495 35.1474Z" fill="#F0D0B4"/>
<path d="M31.5829 31.5488V53.8069V55.2908C31.5829 56.9304 30.2548 58.2585 28.6151 58.2585H19.7119C18.0722 58.2585 16.7441 56.9304 16.7441 55.2908V31.5488C16.7441 33.975 17.909 36.1266 19.7119 37.4843V42.6779C19.7119 43.0859 20.0458 43.4198 20.4538 43.4198H27.8732C28.2812 43.4198 28.6151 43.0859 28.6151 42.6779V37.4843C30.418 36.1266 31.5829 33.975 31.5829 31.5488Z" fill="#788099"/>
<path d="M27.9301 55.2661H20.4714C20.0619 55.2661 19.7295 54.9337 19.7295 54.5242V47.1345C19.7295 46.725 20.0619 46.3926 20.4714 46.3926H27.9294C28.3389 46.3926 28.6713 46.725 28.6713 47.1345V54.5242C28.672 54.9345 28.3397 55.2661 27.9301 55.2661Z" fill="#FA615F"/>
<path d="M28.6132 37.4844V42.6779C28.6132 43.086 28.2793 43.4199 27.8713 43.4199H20.4519C20.0438 43.4199 19.71 43.086 19.71 42.6779V37.4844C20.949 38.4118 22.4922 38.9682 24.1616 38.9682C25.8309 38.9682 27.3742 38.4118 28.6132 37.4844Z" fill="#386AB5"/>
<path d="M31.5829 31.5483C31.5829 33.9744 30.418 36.126 28.6151 37.4837C27.3761 38.4112 25.8329 38.9676 24.1635 38.9676C22.4941 38.9676 20.9509 38.4112 19.7119 37.4837C17.909 36.126 16.7441 33.9744 16.7441 31.5483C16.7441 27.4528 20.068 24.1289 24.1635 24.1289C28.259 24.1289 31.5829 27.4528 31.5829 31.5483Z" fill="#F79009"/>
<path d="M57.1967 34.7951L57.0691 34.5606L61.0147 30.615C61.6498 29.9799 62 29.1349 62 28.2364C62 26.3808 60.4902 24.871 58.6346 24.871C58.2577 24.871 57.8949 24.9459 57.5484 25.0639V15.2258C57.5484 13.9986 56.5497 13 55.3226 13H32.1957C31.6014 13 31.042 13.2315 30.6213 13.6522L24.0715 20.202C23.6508 20.6219 23.4194 21.1813 23.4194 21.7764V23.4249C19.266 23.8011 16 27.2986 16 31.5484V55.2903C16 57.3358 17.6642 59 19.7097 59H28.6129C30.6584 59 32.3226 57.3358 32.3226 55.2903V54.5484H50.129H50.871H61.3924L59.772 44.8261C59.7586 41.3308 58.8705 37.8637 57.1967 34.7951ZM58.2725 44.3416L51.0394 46.3144L49.2951 44.9188C48.4107 44.2103 47.9032 43.1545 47.9032 42.0215V36V35.2581C48.7216 35.2581 49.3871 35.9236 49.3871 36.7419V41.9355H50.871V40.7588L55.971 35.6587C57.3978 38.3297 58.185 41.3152 58.2725 44.3416ZM47.9032 33.7742C47.0849 33.7742 46.4194 34.4397 46.4194 35.2581V36C46.4194 36.4088 46.0862 36.7419 45.6774 36.7419C45.2686 36.7419 44.9355 36.4088 44.9355 36V35.2581C44.9355 33.6214 46.2665 32.2903 47.9032 32.2903H49.8219L48.2979 33.8143C48.1674 33.7965 48.0383 33.7742 47.9032 33.7742ZM39.7783 46.4405L40.7547 43.9981L42.8729 46.1163L40.4297 47.0934C40.1159 47.221 39.7419 46.968 39.7419 46.6267C39.7419 46.5622 39.7538 46.4999 39.7783 46.4405ZM44.1935 45.338L41.533 42.6774L46.0195 38.1909C46.1582 38.1694 46.291 38.1345 46.4194 38.0885V42.0208C46.4194 42.3576 46.4579 42.6871 46.5203 43.0105L44.1935 45.338ZM43.5881 36.7419H35.2903V33.7742H43.7113C43.5466 34.2394 43.4516 34.7372 43.4516 35.2581V36C43.4516 36.2612 43.505 36.509 43.5881 36.7419ZM35.2903 38.2258H43.8864L40.9186 41.1935H35.2903V38.2258ZM35.2903 42.6774H39.6848L38.4977 45.6452H35.2903V42.6774ZM35.2903 47.129H38.3308C38.5548 47.98 39.3242 48.6129 40.245 48.6129C40.4995 48.6129 40.748 48.5654 40.9825 48.4712L42.7097 47.7797V50.0968H35.2903V47.129ZM44.1935 47.1862L44.6105 47.0192L47.0812 44.5486C47.1079 44.5968 47.1324 44.6458 47.1613 44.6933V50.0968H44.1935V47.1862ZM48.6452 46.2981L50.129 47.4852V50.0968H48.6452V46.2981ZM60.5161 28.2364C60.5161 28.7387 60.3203 29.2113 59.9649 29.5667L50.871 38.6606V36.7419C50.871 35.813 50.4332 34.9925 49.7625 34.4479L57.3043 26.9061C57.6597 26.5507 58.1323 26.3548 58.6346 26.3548C59.6718 26.3548 60.5161 27.1992 60.5161 28.2364ZM30.8387 15.533V19.6774C30.8387 20.0862 30.5056 20.4194 30.0968 20.4194H25.9523L30.8387 15.533ZM24.1613 24.871C27.8428 24.871 30.8387 27.8669 30.8387 31.5484C30.8387 35.2299 27.8428 38.2258 24.1613 38.2258C20.4798 38.2258 17.4839 35.2299 17.4839 31.5484C17.4839 27.8669 20.4798 24.871 24.1613 24.871ZM20.4516 38.809C21.566 39.3803 22.8251 39.7097 24.1613 39.7097C25.4975 39.7097 26.7566 39.3803 27.871 38.809V42.6774H20.4516V38.809ZM28.6129 57.5161H19.7097C18.4825 57.5161 17.4839 56.5175 17.4839 55.2903V36.2263C17.906 36.8273 18.4031 37.3718 18.9677 37.8393V42.6774C18.9677 43.4958 19.6333 44.1613 20.4516 44.1613H27.871C28.6893 44.1613 29.3548 43.4958 29.3548 42.6774V37.8393C29.9195 37.3718 30.4165 36.8273 30.8387 36.2263V55.2903C30.8387 56.5175 29.8401 57.5161 28.6129 57.5161ZM32.3226 53.0645V31.5484C32.3226 27.2986 29.0566 23.8011 24.9032 23.4249V21.9032H30.0968C31.3239 21.9032 32.3226 20.9046 32.3226 19.6774V14.4839H55.3226C55.7314 14.4839 56.0645 14.817 56.0645 15.2258V26.0477L51.3057 30.8065H47.9032C46.5893 30.8065 45.4103 31.3822 44.5942 32.2903H33.8065V51.5806H50.129V53.0645H32.3226ZM51.6129 53.0645V47.6959L58.435 45.8351L59.6399 53.0645H51.6129Z" fill="white"/>
<path d="M23.4184 35.1511V36.7426H24.9023V35.1511C25.7592 34.8796 26.3862 34.0864 26.3862 33.1412C26.3862 32.3347 25.9381 31.6084 25.2154 31.2471L23.7686 30.5244C23.5527 30.4161 23.4184 30.1987 23.4184 29.9568C23.4184 29.6074 23.7026 29.3232 24.0521 29.3232H24.2687C24.6182 29.3232 24.9023 29.6074 24.9023 29.9568V30.8071H26.3862V29.9568C26.3862 29.0116 25.7592 28.2185 24.9023 27.9469V26.3555H23.4184V27.9469C22.5615 28.2185 21.9346 29.0116 21.9346 29.9568C21.9346 30.7633 22.3827 31.4897 23.1053 31.851L24.5521 32.5736C24.768 32.682 24.9023 32.8993 24.9023 33.1412C24.9023 33.4907 24.6182 33.7748 24.2687 33.7748H24.0521C23.7026 33.7748 23.4184 33.4907 23.4184 33.1412V32.291H21.9346V33.1412C21.9346 34.0864 22.5615 34.8796 23.4184 35.1511Z" fill="white"/>
<path d="M27.871 45.6445H20.4516C19.6333 45.6445 18.9678 46.31 18.9678 47.1284V54.5478C18.9678 55.3661 19.6333 56.0316 20.4516 56.0316H27.871C28.6894 56.0316 29.3549 55.3661 29.3549 54.5478V47.1284C29.3549 46.31 28.6894 45.6445 27.871 45.6445ZM27.871 48.6123H26.3871V47.1284H27.871V48.6123ZM24.9033 54.5478H23.4194V53.0639H24.9033V54.5478ZM24.9033 51.58H23.4194V50.0961H24.9033V51.58ZM21.9355 51.58H20.4516V50.0961H21.9355V51.58ZM23.4194 48.6123V47.1284H24.9033V48.6123H23.4194ZM21.9355 47.1284V48.6123H20.4516V47.1284H21.9355ZM20.4516 53.0639H21.9355V54.5478H20.4516V53.0639ZM26.3871 54.5478V50.0961H27.8717L27.8725 54.5478H26.3871Z" fill="white"/>
<path d="M54.5808 15.9668H33.8066V20.4184H54.5808V15.9668ZM53.097 18.9345H35.2905V17.4507H53.097V18.9345Z" fill="white"/>
<path d="M33.8066 21.9023H54.5808V23.3862H33.8066V21.9023Z" fill="white"/>
<path d="M33.8066 24.8711H54.5808V26.355H33.8066V24.8711Z" fill="white"/>
<path d="M33.8066 27.8379H45.6776V29.3218H33.8066V27.8379Z" fill="white"/>
<rect x="3.5" y="0.5" width="71" height="71" rx="7.5" stroke="#1D8751"/>
<circle cx="74.5" cy="56.5" r="3.5" fill="#1D8751"/>
<circle cx="3.5" cy="15.5" r="3.5" fill="#1D8751"/>
</svg>
