<svg width="98" height="82" viewBox="0 0 98 82" fill="none" xmlns="http://www.w3.org/2000/svg">
<path d="M81.0396 41.0001C81.0396 63.3686 63.0738 81.5 40.9108 81.5C18.7486 81.5 0.782227 63.3686 0.782227 41.0001C0.782227 18.6323 18.7486 0.5 40.9108 0.5C63.0738 0.5 81.0396 18.6323 81.0396 41.0001Z" fill="#1BA27A"/>
<path d="M59.7467 20.9219H21.749V30.1802H36.1612V43.7882H45.3345V30.1802H59.7467V20.9219Z" fill="white"/>
<path d="M40.8328 45.2385C28.9107 45.2385 19.2448 43.3342 19.2448 40.9848C19.2448 38.6357 28.9102 36.7311 40.8328 36.7311C52.755 36.7311 62.4204 38.6357 62.4204 40.9848C62.4204 43.3342 52.755 45.2385 40.8328 45.2385ZM65.0724 41.6939C65.0724 38.6645 54.2201 36.209 40.8328 36.209C27.4459 36.209 16.5928 38.6645 16.5928 41.6939C16.5928 44.3617 25.0081 46.5843 36.1594 47.0768V66.6113H45.332V47.0845C56.5692 46.6074 65.0724 44.3754 65.0724 41.6939Z" fill="white"/>
<path d="M74.3713 65.4658C86.9865 65.4658 97.2132 55.1275 97.2132 42.3745C97.2132 29.6215 86.9865 19.2832 74.3713 19.2832C61.756 19.2832 51.5293 29.6215 51.5293 42.3745C51.5293 55.1275 61.756 65.4658 74.3713 65.4658Z" fill="#FF060A"/>
<path d="M89.6001 38.1816C88.1727 36.8491 86.1978 34.8142 84.5891 33.3709L84.494 33.3036C84.336 33.1751 84.157 33.0743 83.966 33.0053C80.0873 32.2741 62.0377 28.8633 61.6856 28.9067C61.5869 28.9206 61.4926 28.9568 61.4096 29.0125L61.3191 29.0847C61.2078 29.1989 61.1233 29.337 61.0717 29.4887L61.0479 29.5513V29.8928V29.9458C63.0799 35.6656 71.1031 54.4033 72.683 58.8001C72.7782 59.0987 72.959 59.6663 73.2969 59.695H73.373C73.5539 59.695 74.3248 58.6655 74.3248 58.6655C74.3248 58.6655 88.106 41.7704 89.5005 39.9712C89.681 39.7496 89.8405 39.5112 89.9761 39.2593C90.0112 39.0621 89.9948 38.8593 89.9289 38.6704C89.863 38.4816 89.7499 38.3132 89.6001 38.1816ZM77.8608 40.1492L83.7421 35.2183L87.1923 38.4318L77.8608 40.1492ZM75.5766 39.8269L65.4498 31.4371L81.8338 34.4919L75.5766 39.8269ZM76.4903 42.0254L86.8546 40.3369L75.0052 54.7691L76.4903 42.0254ZM64.0744 32.2741L74.7296 41.4144L73.1874 54.7782L64.0744 32.2741Z" fill="white"/>
</svg>
