<svg width="35" height="35" viewBox="0 0 35 35" fill="none" xmlns="http://www.w3.org/2000/svg">
<path fill-rule="evenodd" clip-rule="evenodd" d="M26.7514 9.39585C27.8088 9.68061 28.6425 10.5142 28.9271 11.5717C29.456 13.5033 29.4356 17.5295 29.4356 17.5295C29.4356 17.5295 29.4356 21.5353 28.9273 23.467C28.6425 24.5243 27.809 25.3581 26.7514 25.6427C24.8197 26.1512 17.0928 26.1512 17.0928 26.1512C17.0928 26.1512 9.38609 26.1512 7.43417 25.6225C6.37666 25.3378 5.54308 24.504 5.25832 23.4467C4.75 21.5353 4.75 17.5092 4.75 17.5092C4.75 17.5092 4.75 13.5033 5.25832 11.5717C5.5429 10.5144 6.397 9.66027 7.43398 9.3757C9.36575 8.86719 17.0926 8.86719 17.0926 8.86719C17.0926 8.86719 24.8197 8.86719 26.7514 9.39585ZM21.0581 17.5126L14.6326 21.2135V13.8118L21.0581 17.5126Z" fill="white"/>
</svg>
