<svg width="101" height="101" viewBox="0 0 101 101" fill="none" xmlns="http://www.w3.org/2000/svg">
<g clip-path="url(#clip0_1574_131475)">
<path d="M79.4405 10.7413C74.158 6.96256 68.1829 4.26131 61.8565 2.79176C55.53 1.32221 48.9761 1.11314 42.5688 2.17647C36.1616 3.23981 30.0265 5.55473 24.5139 8.98907C19.0013 12.4234 14.2192 16.9099 10.4405 22.1924C6.66174 27.4749 3.96049 33.4499 2.49094 39.7764C1.02139 46.1028 0.812313 52.6568 1.87565 59.064C2.93899 65.4713 5.25391 71.6063 8.68825 77.1189C12.1226 82.6315 16.6091 87.4137 21.8916 91.1924L50.666 50.9668L79.4405 10.7413Z" fill="#32A86C"/>
<path d="M21.8916 91.1923C27.1741 94.971 33.1491 97.6723 39.4756 99.1418C45.802 100.611 52.3559 100.82 58.7632 99.7571C65.1704 98.6938 71.3055 96.3789 76.8181 92.9445C82.3307 89.5102 87.1129 85.0237 90.8916 79.7412C94.6703 74.4587 97.3715 68.4836 98.8411 62.1572C100.311 55.8308 100.52 49.2768 99.4564 42.8696C98.393 36.4623 96.0781 30.3273 92.6438 24.8147C89.2094 19.3021 84.7229 14.5199 79.4405 10.7412L50.666 50.9667L21.8916 91.1923Z" fill="#1D8751"/>
<path d="M64.7899 18.0707C64.2339 17.8326 63.5899 18.0902 63.352 18.6464C63.1139 19.2024 63.3715 19.8464 63.9277 20.0843C76.2987 25.3827 84.2923 37.501 84.2923 50.9573C84.2923 69.4675 69.2331 84.5266 50.7229 84.5266C32.2127 84.5266 17.1535 69.4675 17.1535 50.9573C17.1535 32.447 32.2127 17.3879 50.7229 17.3879C54.0875 17.3879 57.4082 17.8838 60.5927 18.8619C61.171 19.0392 61.7835 18.7147 61.9614 18.1366C62.139 17.5583 61.8142 16.9456 61.2359 16.7679C57.8428 15.7256 54.3056 15.1973 50.7229 15.1973C31.0047 15.1973 14.9629 31.2391 14.9629 50.9573C14.9629 70.6754 31.0047 86.7173 50.7229 86.7173C70.441 86.7173 86.4829 70.6754 86.4829 50.9573C86.4829 36.6232 77.968 23.7144 64.7899 18.0707Z" fill="white"/>
<path d="M72.8089 35.2769C73.04 35.2769 73.2731 35.204 73.4711 35.0533C73.9526 34.687 74.0459 33.9998 73.6796 33.5183C73.2345 32.9332 72.7607 32.3573 72.2713 31.807C71.8693 31.3548 71.1769 31.3143 70.725 31.7163C70.2728 32.1183 70.2323 32.8105 70.6343 33.2626C71.0866 33.7713 71.5245 34.3036 71.9361 34.8447C72.1519 35.1277 72.4785 35.2769 72.8089 35.2769Z" fill="white"/>
<path d="M50.7212 77.5939C45.1413 77.5939 39.7993 75.8874 35.2724 72.6586C34.7799 72.3075 34.0958 72.4218 33.7446 72.9145C33.3935 73.407 33.5078 74.0911 34.0005 74.4422C38.9007 77.9371 44.6828 79.7845 50.7214 79.7845C66.6167 79.7845 79.5486 66.8526 79.5486 50.9573C79.5486 45.9461 78.2425 41.01 75.7718 36.6831C75.4721 36.1578 74.8028 35.9753 74.2775 36.2752C73.7522 36.5751 73.5695 37.2441 73.8696 37.7694C76.1518 41.766 77.358 46.3264 77.358 50.9573C77.3578 65.6447 65.4086 77.5939 50.7212 77.5939Z" fill="white"/>
<path d="M30.1059 69.5338C29.6728 69.9562 29.6643 70.6497 30.0866 71.0828C30.4439 71.4491 30.8165 71.8112 31.1935 72.1586C31.4041 72.3527 31.67 72.4484 31.9355 72.4484C32.2308 72.4484 32.5254 72.3297 32.7412 72.0953C33.1511 71.6506 33.1228 70.9575 32.6779 70.5476C32.3294 70.2265 31.9852 69.8918 31.6549 69.5531C31.2323 69.1202 30.539 69.1115 30.1059 69.5338Z" fill="white"/>
<path d="M50.7234 22.1309C34.8281 22.1309 21.8965 35.0627 21.8965 50.958C21.8965 56.925 23.704 62.6506 27.1231 67.5158C27.3364 67.8192 27.6755 67.9815 28.0201 67.9815C28.2377 67.9815 28.4576 67.9169 28.649 67.7821C29.1439 67.4343 29.2633 66.751 28.9154 66.2561C25.7568 61.7619 24.0871 56.4718 24.0871 50.958C24.0871 36.2706 36.036 24.3215 50.7234 24.3215C57.2786 24.3215 63.5786 26.7241 68.4623 31.0872C68.9136 31.4903 69.6058 31.451 70.0089 31C70.4118 30.5487 70.373 29.8565 69.9217 29.4534C64.6358 24.7316 57.8177 22.1309 50.7234 22.1309Z" fill="white"/>
<path d="M51.6188 62.3062C51.5327 61.8241 51.109 61.4609 50.6087 61.4609C50.1108 61.4609 49.6875 61.8219 49.5995 62.3014C46.9911 61.9954 44.057 60.3581 43.4184 57.7763C43.4171 57.7706 43.404 57.7121 43.3635 57.4238C43.2883 56.8869 42.8314 56.4823 42.2988 56.4823C42.002 56.488 41.7201 56.6194 41.5258 56.8429C41.3312 57.0663 41.2399 57.3629 41.2749 57.6571C41.3124 57.9715 41.3266 58.0622 41.335 58.106C41.6727 59.9016 42.7518 61.4532 44.4553 62.5932C45.8962 63.5577 47.7136 64.1834 49.583 64.3599V65.6596C49.583 66.199 49.9879 66.6621 50.5049 66.714C50.5401 66.7175 50.5747 66.7192 50.6091 66.7192C50.9285 66.7192 51.2249 66.5731 51.4227 66.3186C51.5596 66.1422 51.635 65.9074 51.635 65.6572V64.3584C53.7892 64.1486 55.9001 63.3244 57.4403 62.0892C59.2318 60.6528 60.1788 58.7756 60.1788 56.6606C60.1788 56.1644 60.1201 55.6792 59.9828 55.0374C59.0263 50.6932 54.9503 50.2117 51.635 49.8533V39.3859C53.4387 39.5554 55.1371 40.2978 56.1943 41.3815C56.7786 42.0273 57.1753 42.8146 57.372 43.7106C57.4307 44.2192 57.8609 44.603 58.3729 44.603C58.436 44.603 58.4997 44.5969 58.5622 44.5851L58.6062 44.5767C59.1192 44.479 59.4697 44.0129 59.4215 43.4909L59.4073 43.3605C59.0647 41.5749 58.0504 40.0582 56.4741 38.9745C55.1334 38.0527 53.4186 37.4702 51.6352 37.3289V36.257C51.6352 35.7177 51.2304 35.2546 50.7134 35.2027C50.1018 35.1405 49.583 35.6233 49.5833 36.2235V37.3392C48.4904 37.4406 47.4338 37.6916 46.4411 38.086C46.1955 38.1834 45.9968 38.3561 45.8814 38.5725C45.7228 38.8695 45.714 39.2069 45.8573 39.4976C46.0303 39.849 46.3793 40.0671 46.7679 40.0671C46.8952 40.0671 47.0196 40.0433 47.1379 39.996C47.8904 39.6967 48.7125 39.4969 49.5833 39.4012V49.6701C46.7033 49.3063 43.8967 48.6373 43.5608 45.2565C43.5135 44.4052 43.6007 43.18 44.2835 42.1791C44.3004 42.1546 44.347 42.0943 44.409 42.0164C44.7549 41.5822 44.6964 40.9585 44.2761 40.5971C44.0899 40.4371 43.8524 40.3489 43.6071 40.3489C43.2914 40.3489 42.9976 40.4904 42.8016 40.7373C42.7512 40.8006 42.6298 40.9548 42.5906 41.0148C41.7685 42.2735 41.3628 43.8705 41.4778 45.4004C41.7207 47.5698 42.6662 49.1365 44.3679 50.1906C45.9946 51.1981 48.1029 51.5563 49.583 51.7348V59.1638C49.583 59.7086 49.9888 60.1752 50.5068 60.2258C51.1171 60.2852 51.635 59.8043 51.635 59.2048V51.9479C54.635 52.2767 57.3564 52.8183 57.9626 55.5022C58.0489 55.8761 58.0907 56.2551 58.0907 56.6604C58.0905 60.1161 54.7564 61.9998 51.6188 62.3062Z" fill="white"/>
</g>
<defs>
<clipPath id="clip0_1574_131475">
<rect width="100" height="100" fill="white" transform="translate(0.666016 0.5)"/>
</clipPath>
</defs>
</svg>
