<svg width="168" height="95" viewBox="0 0 168 95" fill="none" xmlns="http://www.w3.org/2000/svg">
<path d="M0.621094 67.3575V66.4387H105.919V67.3575H0.621094ZM119.507 67.3575V66.4387H166.749V67.3575H119.507Z" fill="#051015"/>
<path d="M85.811 23.0036C85.811 22.7761 85.811 22.5574 85.811 22.5574C85.811 21.6649 85.1372 21.2099 84.691 21.2099C84.2097 21.1661 83.5972 21.5949 83.2822 21.9536C80.4472 24.7886 80.4472 24.7886 80.4472 24.7886C77.096 27.9124 73.9722 31.0449 70.8485 34.1686C66.596 30.1436 62.5797 26.1274 58.336 22.1111C57.321 21.0086 56.551 21.4374 56.551 21.4374C55.8072 21.8136 55.8772 23.0036 55.8772 23.0036C55.8772 26.5736 55.8772 30.3711 55.8772 33.9411C55.8772 39.7511 55.8772 39.7511 55.8772 39.7511C55.8772 42.6561 55.8772 45.5524 55.8772 48.6849C55.8772 48.9036 55.8772 49.5774 56.3322 49.8049C56.551 50.2424 57.216 50.2424 57.4522 50.2424C58.5635 50.2424 59.6835 50.2424 61.0222 50.2424C61.241 50.2424 61.6872 50.2424 62.1422 49.8049C62.5797 49.5774 62.5797 48.9036 62.5797 48.6849C62.5797 46.2261 62.5797 43.7674 62.5797 41.5361C62.5797 35.2886 62.5797 35.2886 62.5797 35.2886C63.6997 36.3999 63.6997 36.3999 63.6997 36.3999C65.7122 38.1849 67.4972 39.9699 69.5097 41.9824C69.7285 42.2099 70.1747 42.6561 70.8485 42.6561C71.286 42.6561 71.741 42.2099 72.1872 41.9824C74.1997 39.9699 76.2035 37.9661 78.4435 35.7349C78.8897 35.2886 78.8897 35.2886 78.8897 35.2886C78.8897 37.5199 78.8897 37.5199 78.8897 37.5199C78.8897 41.0899 78.8897 44.8874 78.8897 48.4661C78.8897 48.9036 79.1085 49.5774 79.3272 49.8049C79.7822 50.2424 80.4472 50.2424 80.666 50.2424C81.786 50.2424 82.906 50.2424 83.7985 50.2424C84.0172 50.2424 84.0172 50.2424 84.0172 50.2424C84.2447 50.2424 84.9185 50.2424 85.356 49.8049C85.811 49.3586 85.811 48.9036 85.811 48.4661C85.811 41.7636 85.811 35.0611 85.811 23.0036Z" fill="#056333"/>
<path d="M12.0227 50.1024C12.1189 49.4287 12.7927 48.8512 13.6152 48.7374L17.9202 48.7462L20.7202 48.6937C21.6477 48.6762 22.3302 48.0899 22.3039 47.3287C22.2864 46.7599 21.5777 46.1999 20.7552 46.1299L17.7364 46.1824L8.88142 46.3574C8.18142 46.3749 7.46392 45.8237 7.33267 45.1587C7.42892 44.4849 8.10267 43.9074 8.80267 43.8899L17.6577 43.7149C18.5852 43.6974 19.2677 43.1112 19.1277 42.4462C19.1102 41.6937 18.5152 41.2299 17.6927 41.1512L5.94142 41.4749C5.11892 41.3962 4.41017 40.8449 4.39267 40.2762C4.36642 39.5062 5.04017 38.9287 5.97642 38.9112L17.6227 38.6749L20.6064 38.5524C20.6881 39.0891 20.8018 39.6228 20.9477 40.1537C22.2777 45.1849 25.8039 49.0437 30.2314 50.9774L29.8727 50.9862L19.6264 51.1787L13.6939 51.3974C12.8714 51.3187 12.1627 50.7587 12.0227 50.1024ZM0.621423 35.3062C0.603923 34.5537 1.28642 33.9587 2.22267 33.9412L17.3514 33.6437L18.2877 33.6262L20.5627 33.5737C20.4402 34.4224 20.3789 35.2799 20.3964 36.1462L18.4802 36.1812L17.4302 36.1112L2.17892 36.5049C1.35642 36.4349 0.638923 35.8749 0.621423 35.3062ZM8.16392 30.0212C8.02392 29.3649 8.70642 28.7699 9.63392 28.7524L17.3164 28.6037L17.7889 28.5949C18.7164 28.5774 19.3989 27.9912 19.2589 27.3262C19.2414 26.5649 18.5239 26.0137 17.7102 26.1274L17.1239 26.0399L9.55517 26.2849C8.74142 26.2062 8.02392 25.6462 7.89267 24.9899C7.98892 24.3249 8.67142 23.7387 9.37142 23.7212L18.1914 23.5462C18.6114 24.7887 19.1627 26.0137 19.9064 27.2299L21.5864 29.9249L21.5602 29.8812C21.4114 30.2749 21.2627 30.6774 21.1402 31.0799L17.3952 31.0712L9.71267 31.2287C8.77642 31.2462 8.06767 30.6862 8.16392 30.0212ZM24.2202 23.4324H24.2552L25.6727 23.3974C25.8652 23.3887 26.0664 23.3887 26.2589 23.3887C25.7689 23.8028 25.2993 24.2433 24.8502 24.7099C24.6402 24.2899 24.4302 23.8524 24.2202 23.4324Z" fill="#056333"/>
<path d="M40.4424 40.1275C41.6499 39.0688 42.3849 37.5025 42.3411 35.7438C42.3061 34.2475 41.6674 32.9088 40.5911 31.885C39.5149 30.8525 38.1586 30.2925 36.6449 30.3275C35.0786 30.3625 33.6961 31.0188 32.6986 32.0513C32.6199 31.9463 32.5324 31.8413 32.4536 31.7363C33.4861 30.66 34.9386 29.995 36.5661 29.9513C38.2199 29.9163 39.7336 30.4763 40.8886 31.5788C42.0436 32.6725 42.6736 34.16 42.7174 35.8138C42.7611 37.6338 41.9999 39.2788 40.7399 40.39C40.6436 40.3113 40.5474 40.215 40.4424 40.1275Z" fill="#056333"/>
<path fill-rule="evenodd" clip-rule="evenodd" d="M37.8174 37.6687C37.8612 37.5724 37.8874 37.4587 37.8874 37.3274C37.8874 37.1787 37.8524 37.0474 37.7824 36.9424C37.7124 36.8287 37.6074 36.7499 37.4762 36.6712C37.4149 36.6537 37.3187 36.6099 37.1962 36.5662V37.0474C36.5224 36.3737 35.8662 35.6824 35.2187 34.9737C35.0437 34.7899 34.8774 34.6062 34.7112 34.4137C34.7112 34.3787 34.7112 34.3437 34.7112 34.3174C34.7112 33.9499 34.7928 33.6203 34.9562 33.3287C35.1312 33.0312 35.3587 32.8124 35.6474 32.6549C35.8574 32.5499 36.1112 32.4799 36.3999 32.4449V31.7537H37.1962V32.4624C37.6337 32.5324 37.9837 32.6899 38.2549 32.9612C38.6224 33.3112 38.8149 33.8187 38.8412 34.4749L37.7212 34.5274C37.6687 34.1687 37.5637 33.9149 37.4062 33.7749C37.3449 33.7224 37.2749 33.6787 37.1962 33.6437V35.1399C37.6599 35.2974 38.0012 35.4462 38.2199 35.6037C38.4737 35.7787 38.6662 36.0149 38.7974 36.2949C38.9287 36.5749 38.9987 36.9249 38.9987 37.3274C38.9928 37.7707 38.8849 38.1616 38.6749 38.4999C38.3862 38.2287 38.0974 37.9487 37.8174 37.6687ZM36.3999 34.8949V33.5824C36.2424 33.6087 36.1199 33.6699 36.0149 33.7487C35.8516 33.8712 35.7699 34.0257 35.7699 34.2124C35.7699 34.3962 35.8487 34.5537 35.9887 34.6762C36.0674 34.7374 36.2074 34.8162 36.3999 34.8949Z" fill="#056333"/>
<path d="M22.155 35.9537C22.155 34.4925 22.3563 33.075 22.7325 31.745L25.8825 36.785L30.0388 43.225L40.9588 50.1287H40.9675C39.6813 50.4962 38.3163 50.6975 36.8988 50.6975C28.4113 50.6975 22.155 44.2137 22.155 35.9537ZM42.28 41.7112C44.1438 39.8212 44.9225 36.8812 44.2663 33.9412C43.6013 30.8175 41.1425 28.3587 38.0188 27.9125H36.8988C34.6675 27.9125 32.655 28.805 31.3163 30.1437C31.3046 30.1612 31.2929 30.1758 31.2813 30.1875C30.1438 28.6125 29.12 26.9762 28.2188 25.235C28.0525 24.9112 27.895 24.5787 27.7375 24.255C30.2138 22.3387 33.355 21.21 36.8988 21.21C45.1588 21.21 51.1875 27.4662 51.415 35.9537C51.415 39.7075 50.0588 43.0675 47.6963 45.8587C45.8325 44.5462 44.0213 43.1725 42.28 41.7112Z" fill="#056333"/>
<path fill-rule="evenodd" clip-rule="evenodd" d="M166.653 49.805C166.206 50.2425 165.533 50.2425 165.095 50.2425C165.095 50.2425 165.095 50.2425 164.649 50.2425C164.649 50.2425 164.649 50.2425 162.636 50.2425C162.19 50.2425 161.744 50.2425 161.298 50.2425C160.405 50.2425 159.95 49.805 159.504 49.1312C159.285 48.685 159.058 48.02 158.839 47.565C158.611 46.9 158.393 46.4537 158.165 45.7887C157.273 45.7887 156.38 45.7887 155.488 45.7887C155.488 45.7887 155.488 45.7887 152.583 45.7887C152.583 45.7887 152.583 45.7887 149.905 45.7887C149.013 45.7887 148.12 45.7887 147.446 45.7887C147.219 45.7887 147.219 45.7887 147.219 45.7887V46.0075C147 46.4537 146.108 48.685 145.88 49.1312C145.661 49.805 144.988 50.2425 144.104 50.2425C143.649 50.2425 142.529 50.2425 140.525 50.2425C139.851 50.2425 139.186 50.2425 138.959 49.805C138.583 49.2275 138.688 48.6587 139.011 48.2212C139.064 48.1425 139.186 48.02 147.446 30.59C148.68 28.1312 151.051 23.1962 151.419 22.435C151.445 22.365 151.909 21.21 152.81 21.21C153.51 21.21 153.799 21.7612 153.991 22.1112C154.053 22.2075 161.298 37.52 164.868 44.8875C164.868 44.8875 164.868 44.8875 166.434 48.02C166.653 48.4662 166.88 49.1312 166.653 49.805ZM153.029 33.9412C153.029 33.9412 153.029 33.9412 152.81 33.495C152.81 33.495 152.81 33.495 152.136 35.0612C151.471 36.6275 150.798 37.9662 150.133 39.5237C151.025 39.5237 151.909 39.5237 152.81 39.5237C153.484 39.5237 154.376 39.5237 155.26 39.5237C154.595 37.7387 153.703 35.9537 153.029 33.9412Z" fill="#056333"/>
<path fill-rule="evenodd" clip-rule="evenodd" d="M116.401 48.02C116.628 48.4662 117.075 49.1312 116.628 49.805C116.182 50.2425 115.736 50.2425 115.062 50.2425C114.843 50.2425 114.625 50.2425 114.17 50.2425C114.17 50.2425 114.17 50.2425 113.277 50.2425C113.055 50.2425 112.834 50.2425 112.612 50.2425C112.385 50.2425 111.938 50.2425 111.492 50.2425C111.492 50.2425 111.492 50.2425 111.273 50.2425C109.926 50.2425 109.48 49.1312 109.48 48.9037C109.261 48.4662 109.033 47.7925 108.815 47.3462C108.587 46.9 108.36 46.4537 108.141 45.7887C104.571 45.7887 100.992 45.7887 97.2034 45.7887V46.0075C96.9759 46.4537 96.7484 46.9 96.5297 47.565C96.3022 48.02 96.0834 48.685 95.8647 49.1312C95.6372 49.805 94.9634 50.2425 94.2984 50.2425C92.9567 50.2425 91.6151 50.2425 90.2734 50.2425C90.0459 50.2425 89.3809 50.2425 88.9347 49.5775C88.4884 49.1312 88.9347 48.4662 88.9347 48.2387C91.8397 42.4375 94.5172 36.6275 97.4222 30.8175C97.4222 30.8175 97.4222 30.8175 99.8809 25.6812C100.327 24.5612 100.992 23.45 101.438 22.33C101.893 21.4375 102.331 21.21 102.786 21.21C103.232 21.21 103.678 21.665 103.897 22.33C103.897 22.33 103.897 22.33 111.492 37.7387C113.05 41.3175 114.843 44.66 116.401 48.02ZM102.786 33.7225C102.786 33.7225 102.786 33.7225 102.786 33.495C102.786 33.495 102.786 33.495 102.558 33.9412C101.666 35.9537 100.773 37.7387 100.1 39.5237C100.1 39.5237 100.1 39.5237 102.558 39.5237C103.451 39.5237 104.343 39.5237 105.463 39.5237C104.571 37.7387 103.678 35.735 102.786 33.7225ZM99.2072 40.425C99.2072 39.5237 99.2072 39.5237 99.2072 39.5237C99.2072 40.425 99.2072 40.425 99.2072 40.425ZM108.141 45.7887C108.141 44.8875 108.141 44.8875 108.141 44.8875C108.141 45.7887 108.141 45.7887 108.141 45.7887Z" fill="#056333"/>
<path d="M138.512 27.2385C139.186 26.1273 139.851 25.016 140.525 23.896C140.866 23.3535 141.312 22.3823 140.542 21.8573C140.35 21.7435 140.035 21.6648 139.632 21.6648H139.414C139.414 21.6648 139.414 21.6648 139.186 21.6648C138.74 21.6648 138.74 21.6648 138.74 21.6648C136.955 21.6648 136.955 21.6648 136.955 21.6648C136.506 21.6648 136.059 21.6648 135.616 21.6648C135.389 21.6648 135.389 21.6648 135.389 21.6648C134.269 21.6648 133.822 22.3298 133.604 22.776C131.591 26.1273 129.806 29.4785 127.794 32.8298C127.575 32.3835 127.575 32.3835 127.575 32.3835C125.781 29.0323 123.769 25.8998 121.992 22.5573C121.546 21.8835 121.091 21.6648 120.199 21.6648C119.752 21.6648 119.079 21.6648 118.641 21.6648C117.075 21.6648 117.075 21.6648 117.075 21.6648C116.182 21.6648 116.182 21.6648 116.182 21.6648C115.964 21.6648 115.964 21.6648 115.736 21.6648C115.062 21.6648 114.844 21.8835 114.625 22.111C114.17 23.0035 114.844 23.6685 114.844 23.6685C116.847 27.0198 116.847 27.0198 116.847 27.0198C118.86 30.5898 121.091 34.1685 123.331 37.7385C124.066 39.0335 124.346 40.0223 124.425 41.0898C124.442 41.3085 124.442 47.5648 124.442 48.6848C124.442 48.9035 124.442 49.3585 124.67 49.8048C125.116 50.2423 125.781 50.2423 126.009 50.2423C127.12 50.2423 128.24 50.2423 129.579 50.2423C129.806 50.2423 130.252 50.2423 130.699 49.8048C131.145 49.5773 131.145 48.9035 131.145 48.6848C131.145 48.0198 131.084 41.6498 131.092 41.2735C131.154 39.9435 131.617 38.6835 132.484 37.2923C134.724 33.941 136.727 30.5898 138.512 27.2385Z" fill="#056333"/>
<path d="M92.7324 54.8186V56.9361H97.2212V59.4036H92.7324V61.5211H97.5974V63.9886H88.7424V52.3511H97.5974V54.8186H92.7324Z" fill="#051015"/>
<path d="M103.591 53.6288L103.469 53.375H99.2249L102.839 57.995L104.965 55.2475L103.591 53.6288Z" fill="#056333"/>
<path d="M115.447 68.9761L106.33 57.1199L104.457 60.1124L112.7 71.0936L115.447 68.9761Z" fill="#051015"/>
<path d="M126.805 53.3749C130.795 53.3749 130.795 53.3749 130.795 53.3749C130.795 54.1274 130.795 54.1274 130.795 54.1274C131.18 53.6286 132.046 53.1299 133.297 53.1299C134.05 53.1299 134.417 53.2524 134.794 53.3749C134.794 56.3674 134.794 56.3674 134.794 56.3674C134.549 56.3674 134.172 56.2449 133.42 56.2449C132.177 56.2449 130.795 56.8661 130.795 58.6161C130.795 63.9886 130.795 63.9886 130.795 63.9886C126.805 63.9886 126.805 63.9886 126.805 53.3749Z" fill="#051015"/>
<path fill-rule="evenodd" clip-rule="evenodd" d="M141.408 61.3635C142.782 61.3635 143.281 60.9873 143.412 60.4885C146.903 60.4885 146.903 60.4885 146.903 60.4885C146.527 61.9848 145.153 64.2335 141.286 64.2335C137.541 64.2335 135.668 61.486 135.668 58.7473C135.668 55.991 137.786 52.9985 141.408 52.9985C145.652 52.9985 147.28 55.8685 147.28 58.8698C147.28 58.9923 147.28 59.246 147.28 59.491C139.545 59.491 139.545 59.491 139.545 59.491C139.545 60.4885 140.288 61.3635 141.408 61.3635ZM141.408 55.746C140.157 55.746 139.658 56.4985 139.545 57.1198C143.281 57.1198 143.281 57.1198 143.281 57.1198C143.158 56.4985 142.66 55.746 141.408 55.746Z" fill="#051015"/>
<path d="M153.764 55.7462C153.02 55.7462 152.644 55.9912 152.644 56.3674C152.644 56.7437 153.02 56.9974 153.895 57.1199C156.012 57.4962 157.132 58.8699 157.132 60.4887C157.132 62.6062 155.514 64.2337 152.399 64.2337C150.395 64.2337 148.907 63.4899 148.024 62.7374C149.275 60.6199 149.275 60.6199 149.275 60.6199C149.896 60.9874 151.025 61.6174 152.022 61.6174C152.766 61.6174 153.265 61.3637 153.265 60.9874C153.265 60.4887 152.897 60.1124 151.777 59.9899C149.52 59.6137 148.654 58.6162 148.654 56.9974C148.654 54.4949 150.894 53.2524 153.142 53.2524C155.015 53.2524 155.645 53.4974 156.765 53.9962C155.767 56.3674 155.767 56.3674 155.767 56.3674C155.269 55.9912 154.647 55.7462 153.764 55.7462Z" fill="#051015"/>
<path d="M163.625 55.7462C162.873 55.7462 162.505 55.9912 162.505 56.3674C162.505 56.7437 162.873 56.9974 163.756 57.1199C165.883 57.4962 166.994 58.8699 166.994 60.4887C166.994 62.6062 165.375 64.2337 162.26 64.2337C160.256 64.2337 158.883 63.4899 157.885 62.7374C159.136 60.6199 159.136 60.6199 159.136 60.6199C159.758 60.9874 160.886 61.6174 161.884 61.6174C162.628 61.6174 163.126 61.3637 163.126 60.9874C163.126 60.4887 162.759 60.1124 161.753 59.9899C159.381 59.6137 158.515 58.6162 158.515 56.9974C158.515 54.4949 160.755 53.2524 163.004 53.2524C164.876 53.2524 165.498 53.4974 166.626 53.9962C165.629 56.3674 165.629 56.3674 165.629 56.3674C165.13 55.9912 164.5 55.7462 163.625 55.7462Z" fill="#051015"/>
<path fill-rule="evenodd" clip-rule="evenodd" d="M124.932 58.6161C124.932 61.3636 123.191 64.1111 119.691 64.1111C117.819 64.1111 117.075 63.7349 116.445 63.2361C116.445 63.2361 116.445 63.2361 116.445 68.5999C116.445 68.5999 116.445 68.5999 116.322 68.5999C116.322 68.5999 116.322 68.5999 112.954 64.1111C112.954 64.1111 112.954 64.1111 112.954 53.3749C112.954 53.3749 112.954 53.3749 116.445 53.3749C116.445 53.3749 116.445 53.3749 116.445 53.9961C117.075 53.6286 118.064 53.1299 119.691 53.1299C123.191 53.1299 124.932 55.8686 124.932 58.6161ZM120.942 58.7474C120.942 57.4961 119.945 56.4986 118.694 56.4986C117.574 56.4986 116.576 57.4961 116.576 58.7474C116.576 59.8674 117.574 60.8649 118.694 60.8649C119.945 60.8649 120.942 59.8674 120.942 58.7474Z" fill="#051015"/>
<path d="M107.214 53.375L105.84 55.125L105.21 55.8687L99.1023 63.9887H103.346L105.21 61.4863L105.341 61.3637L111.335 53.375H107.214Z" fill="#051015"/>
<path d="M59.5435 21.7611C58.6423 21.1836 57.7585 20.5886 56.8398 20.0286C52.491 17.3073 47.941 14.9798 43.0585 13.3786C40.661 12.5823 38.2023 11.9961 35.6823 11.7686C33.626 11.5761 31.5873 11.6373 29.6273 12.3461C26.521 13.4573 25.1385 15.9423 25.2873 19.1011C25.4185 21.6823 26.3285 24.0273 27.5098 26.2848C29.3473 29.8898 31.7973 33.0748 34.5273 36.0586C39.4098 41.3961 45.0185 45.8761 51.1523 49.7086C55.1423 52.1936 59.3073 54.3286 63.7698 55.8336C65.161 56.3236 66.6135 56.6736 68.0398 57.0586C70.0523 57.5923 72.1085 57.8461 74.1823 57.8023C75.836 57.7673 77.4548 57.5136 78.9598 56.7523C81.0423 55.6936 82.101 53.9611 82.3285 51.6773C82.3548 51.3711 82.3548 51.0823 82.3723 50.7848C82.4073 50.7848 82.4335 50.7848 82.4685 50.7848C82.5035 51.4848 82.5823 52.1936 82.5648 52.9023C82.521 54.9411 81.926 56.7873 80.456 58.3011C79.2223 59.5436 77.6998 60.2523 76.011 60.6373C73.7448 61.1536 71.4785 61.1098 69.2035 60.8036C64.5923 60.1911 60.2435 58.6861 56.026 56.7873C50.8635 54.4773 46.0423 51.5811 41.501 48.2386C36.601 44.6773 32.1298 40.6261 28.166 36.0236C25.6285 33.0923 23.3623 29.9773 21.5948 26.4861C20.501 24.3511 19.6173 22.1111 19.241 19.7223C18.9873 18.0336 18.9873 16.3448 19.5735 14.7086C20.3523 12.4598 21.9623 11.0248 24.1673 10.1936C26.2323 9.40609 28.3848 9.27484 30.5898 9.38859C34.1073 9.59859 37.5198 10.4648 40.8273 11.6373C47.0135 13.8073 52.701 16.9398 58.0648 20.6498C58.581 21.0086 59.071 21.3586 59.596 21.7086C59.5698 21.7261 59.5523 21.7436 59.5435 21.7611Z" fill="#056333"/>
<path d="M83.9997 52.9286C83.9997 53.3836 84.0347 53.8124 83.9997 54.2674C83.8509 56.4461 83.1247 58.3974 81.5497 59.9724C80.3772 61.1274 78.9597 61.8449 77.4109 62.3174C74.9609 63.0524 72.4759 63.1311 69.9472 62.9211C64.9072 62.4924 60.1384 60.9874 55.4922 59.0011C50.0584 56.6736 45.0184 53.6724 40.2409 50.1811C39.9084 49.9361 39.5934 49.5599 39.1997 49.4636C38.8322 49.3849 38.3859 49.5949 37.9659 49.6736C34.6672 50.2424 31.5347 49.7961 28.6297 48.1249C25.8297 46.4886 24.0447 44.0649 23.2134 40.9411C22.5747 38.5961 22.5572 36.2336 23.0384 33.8624C23.0734 33.7136 23.0034 33.5036 22.9247 33.3986C21.6384 31.6136 20.4659 29.7849 19.4509 27.8336C18.2347 25.4799 17.2722 23.0299 16.8084 20.3961C16.4497 18.2874 16.4322 16.2049 17.1059 14.1486C17.6397 12.5561 18.5584 11.2699 19.8534 10.2199C20.8247 9.46739 21.8834 8.92489 23.0384 8.55739C25.3659 7.78739 27.7634 7.69989 30.1697 7.84864C30.7647 7.88364 31.3597 7.96239 31.9547 8.07614C31.4909 8.04114 31.0359 8.00614 30.5897 7.97989C28.4984 7.86614 26.4422 8.02364 24.4384 8.63614C23.4759 8.92489 22.5572 9.31864 21.7084 9.87864C20.8334 10.4561 20.0984 11.1386 19.4772 11.9961C17.8672 14.1486 17.5084 16.5899 17.7884 19.1799C18.0947 22.0849 19.1272 24.7536 20.4659 27.3174C22.3909 31.0274 24.8672 34.3611 27.6147 37.4936C28.2447 38.2111 28.8922 38.9024 29.5309 39.6111C29.6097 39.6899 29.6709 39.7861 29.7234 39.8999C30.3447 41.6236 31.5697 42.7436 33.2409 43.4174C33.4334 43.5049 33.6084 43.6099 33.7747 43.7586C36.1109 45.8586 38.5784 47.8536 41.1247 49.6999C44.2134 51.9136 47.4159 53.9436 50.7497 55.7374C55.1509 58.0911 59.7009 60.0599 64.5484 61.3199C66.9284 61.9236 69.3434 62.3436 71.8022 62.4136C74.2172 62.4574 76.5534 62.1861 78.7584 61.1361C82.0397 59.5874 83.7547 56.9449 83.9297 53.3136C83.9472 53.1911 83.9472 53.0599 83.9647 52.9286C83.9822 52.9286 83.9822 52.9286 83.9997 52.9286Z" fill="#056333"/>
<path d="M38.6748 49.656L39.2436 49.7348L39.6461 50.076L39.0948 50.2685L38.6748 49.656Z" fill="#056333"/>
<path d="M9.975 75.9763H3.08875V78.7325H9.40625V80.99H3.08875V84.3325H10.29V86.6688H0.4375V73.6663H9.975V75.9763Z" fill="#056333"/>
<path d="M23.9136 86.6688H20.7549L24.9374 80.045L20.9649 73.6663H24.2111L26.5299 77.9013L28.9099 73.6663H32.0511L28.0699 79.94L32.2961 86.6688H28.9974L26.5299 82.2413L23.9136 86.6688Z" fill="#056333"/>
<path d="M44.5637 75.0311C45.6079 73.9578 46.9379 73.4211 48.5537 73.4211C50.7237 73.4211 52.3074 74.1386 53.3049 75.5736C53.8591 76.3786 54.1566 77.1866 54.1974 77.9974H51.4762C51.307 77.3791 51.0854 76.9095 50.8112 76.5886C50.327 76.0228 49.6095 75.7399 48.6587 75.7399C47.6904 75.7399 46.9291 76.1395 46.3749 76.9386C45.8149 77.7378 45.5349 78.8666 45.5349 80.3249C45.5349 81.7832 45.8295 82.8741 46.4187 83.5974C47.0079 84.3266 47.7574 84.6911 48.6674 84.6911C49.6008 84.6911 50.3095 84.3791 50.7937 83.7549C51.0679 83.4166 51.2924 82.912 51.4674 82.2411H54.1712C53.9379 83.6586 53.3429 84.8107 52.3862 85.6974C51.4295 86.5899 50.2016 87.0361 48.7024 87.0361C46.8533 87.0361 45.4008 86.4353 44.3449 85.2336C43.2833 84.0261 42.7524 82.3724 42.7524 80.2724C42.7524 78.0032 43.3562 76.2561 44.5637 75.0311Z" fill="#056333"/>
<path d="M65.7822 86.6688V73.6663H68.4772V78.6275H73.5347V73.6663H76.2297V86.6688H73.5347V80.8675H68.4772V86.6688H65.7822Z" fill="#056333"/>
<path fill-rule="evenodd" clip-rule="evenodd" d="M91.9888 73.6663H95.0688L99.6626 86.6688H96.7226L95.8651 84H91.0701L90.1951 86.6688H87.3513L91.9888 73.6663ZM91.8051 81.76H95.1388L93.4938 76.6413L91.8051 81.76Z" fill="#056333"/>
<path d="M110.705 73.6663H113.557L118.72 82.74V73.6663H121.248V86.6688H118.527L113.242 77.4463V86.6688H110.705V73.6663Z" fill="#056333"/>
<path d="M141.968 77.7262C141.764 76.8396 141.263 76.2183 140.463 75.8625C140.014 75.67 139.515 75.5737 138.967 75.5737C137.923 75.5737 137.063 75.9675 136.386 76.755C135.715 77.5483 135.38 78.7354 135.38 80.3162C135.38 81.9146 135.744 83.0462 136.473 83.7112C137.203 84.3762 138.031 84.7087 138.958 84.7087C139.874 84.7087 140.621 84.4462 141.198 83.9212C141.782 83.3962 142.14 82.7108 142.275 81.865H139.273V79.695H144.69V86.6687H142.887L142.616 85.05C142.091 85.6625 141.618 86.0942 141.198 86.345C140.481 86.7883 139.6 87.01 138.556 87.01C136.835 87.01 135.423 86.4121 134.321 85.2162C133.172 84.0204 132.597 82.3812 132.597 80.2987C132.597 78.1929 133.178 76.5071 134.338 75.2412C135.499 73.9696 137.031 73.3337 138.932 73.3337C140.589 73.3337 141.919 73.7537 142.922 74.5937C143.92 75.4279 144.494 76.4721 144.646 77.7262H141.968Z" fill="#056333"/>
<path d="M166.329 75.9763H159.442V78.7325H165.76V80.99H159.442V84.3325H166.644V86.6688H156.791V73.6663H166.329V75.9763Z" fill="#056333"/>
</svg>
