<svg width="100" height="101" viewBox="0 0 100 101" fill="none" xmlns="http://www.w3.org/2000/svg">
<g clip-path="url(#clip0_1574_131491)">
<path d="M78.8453 9.78586C73.559 6.00441 67.5796 3.30121 61.2486 1.83059C54.9175 0.359968 48.3589 0.150741 41.947 1.21485C35.5351 2.27895 29.3956 4.59556 23.879 8.03238C18.3624 11.4692 13.5767 15.959 9.79529 21.2453C6.01384 26.5316 3.31063 32.511 1.84002 38.842C0.3694 45.173 0.160171 51.7317 1.22428 58.1436C2.28838 64.5555 4.60499 70.695 8.04181 76.2116C11.4786 81.7282 15.9684 86.5138 21.2547 90.2953L50.05 50.0406L78.8453 9.78586Z" fill="#32A86C"/>
<path d="M21.2563 90.2962C26.5426 94.0776 32.522 96.7808 38.853 98.2514C45.184 99.7221 51.7427 99.9313 58.1546 98.8672C64.5665 97.8031 70.706 95.4865 76.2226 92.0496C81.7392 88.6128 86.5248 84.1231 90.3063 78.8367C94.0877 73.5504 96.7909 67.571 98.2615 61.24C99.7322 54.909 99.9414 48.3503 98.8773 41.9384C97.8132 35.5265 95.4966 29.387 92.0597 23.8704C88.6229 18.3538 84.1332 13.5682 78.8468 9.78674L50.0516 50.0415L21.2563 90.2962Z" fill="#1D8751"/>
<path d="M16.3203 76.7389C20.2655 70.095 28.912 65.5479 42.4018 65.5479C55.8916 65.5479 64.5382 70.095 68.4833 76.7389M67.3643 60.51C74.508 64.1163 78.0799 67.7226 81.6518 74.9352M59.9345 32.945C63.2959 34.7707 65.5809 38.3555 65.5809 42.4792C65.5809 46.4837 63.426 49.98 60.2231 51.8507M53.1175 42.479C53.1175 48.4542 48.3199 53.2979 42.4018 53.2979C36.4837 53.2979 31.6862 48.4542 31.6862 42.479C31.6862 36.5039 36.4837 31.6602 42.4018 31.6602C48.3199 31.6602 53.1175 36.5039 53.1175 42.479Z" stroke="white" stroke-width="2.99812" stroke-linecap="round"/>
<path d="M78.4652 23.0982C77.5709 21.5543 75.8994 20.5156 73.9849 20.5156C71.8142 20.5156 69.9559 21.8509 69.1886 23.7439M76.8943 23.7439H79.4805V21.1613M69.5576 28.2634C70.4519 29.8073 72.1235 30.846 74.0379 30.846C76.2086 30.846 78.067 29.5107 78.8343 27.6178M71.1285 27.6178H68.5424V30.2004" stroke="white" stroke-width="1.58379" stroke-linecap="round" stroke-linejoin="round"/>
</g>
<defs>
<clipPath id="clip0_1574_131491">
<rect width="100" height="100" fill="white" transform="translate(0 0.5)"/>
</clipPath>
</defs>
</svg>
